<?xml version="1.0" encoding="UTF-8" standalone="no"?>
<svg
   xmlns:dc="http://purl.org/dc/elements/1.1/"
   xmlns:cc="http://creativecommons.org/ns#"
   xmlns:rdf="http://www.w3.org/1999/02/22-rdf-syntax-ns#"
   xmlns:svg="http://www.w3.org/2000/svg"
   xmlns="http://www.w3.org/2000/svg"
   xmlns:sodipodi="http://sodipodi.sourceforge.net/DTD/sodipodi-0.dtd"
   xmlns:inkscape="http://www.inkscape.org/namespaces/inkscape"
   width="20in"
   height="11.2556in"
   viewBox="0 0 1800 1013"
   version="1.1"
   id="svg6"
   sodipodi:docname="1.svg"
   inkscape:version="0.92.5 (2060ec1f9f, 2020-04-08)">
  <metadata
     id="metadata12">
    <rdf:RDF>
      <cc:Work
         rdf:about="">
        <dc:format>image/svg+xml</dc:format>
        <dc:type
           rdf:resource="http://purl.org/dc/dcmitype/StillImage" />
      </cc:Work>
    </rdf:RDF>
  </metadata>
  <defs
     id="defs10" />
  <sodipodi:namedview
     pagecolor="#ffffff"
     bordercolor="#666666"
     borderopacity="1"
     objecttolerance="10"
     gridtolerance="10"
     guidetolerance="10"
     inkscape:pageopacity="0"
     inkscape:pageshadow="2"
     inkscape:window-width="1366"
     inkscape:window-height="715"
     id="namedview8"
     showgrid="false"
     inkscape:zoom="0.22097087"
     inkscape:cx="-112.32049"
     inkscape:cy="540.2688"
     inkscape:window-x="1360"
     inkscape:window-y="24"
     inkscape:window-maximized="1"
     inkscape:current-layer="svg6" />
  <path
     style="fill:#074687;stroke:none;stroke-width:1.16546786;fill-opacity:1"
     d="M 1085.9941 0.001953125 C 1083.8501 0.001953125 1081.7164 0.10788021 1079.5938 0.31054688 C 1077.4711 0.52388021 1075.3591 0.84571875 1073.2578 1.2617188 C 1071.1671 1.6777187 1069.0988 2.187974 1067.0508 2.8066406 C 1065.0028 3.4253073 1062.9968 4.1513229 1061.0234 4.9726562 C 1059.0501 5.7833229 1057.1204 6.7004583 1055.2324 7.703125 C 1053.3444 8.7057917 1051.5207 9.8053333 1049.75 11 C 1047.9687 12.184 1046.251 13.451974 1044.5977 14.806641 C 1042.9443 16.161307 1041.3653 17.601469 1039.8613 19.105469 C 1038.3467 20.620135 1036.9074 22.200182 1035.5527 23.853516 C 1034.2087 25.506849 1032.9281 27.223474 1031.7441 28.994141 C 1030.5601 30.775474 1029.4606 32.600281 1028.4473 34.488281 C 1027.4446 36.365615 1026.5275 38.296198 1025.7168 40.269531 C 1024.8955 42.242865 1024.1821 44.258641 1023.5527 46.306641 C 1022.9341 48.343974 1022.4208 50.41324 1021.9941 52.503906 C 1021.5781 54.60524 1021.2691 56.717177 1021.0664 58.839844 C 1020.8531 60.973177 1020.7461 63.106901 1020.7461 65.240234 C 1020.7461 67.373568 1020.8531 69.50624 1021.0664 71.628906 C 1021.2691 73.76224 1021.5781 75.86351 1021.9941 77.964844 C 1022.4208 80.05551 1022.9341 82.123875 1023.5527 84.171875 C 1024.1821 86.219875 1024.8955 88.225885 1025.7168 90.199219 C 1026.5275 92.172552 1027.4446 94.104188 1028.4473 95.992188 C 1029.4606 97.869521 1030.5601 99.703943 1031.7441 101.47461 C 1032.9281 103.25594 1034.2087 104.97257 1035.5527 106.61523 C 1036.9074 108.26857 1038.3467 109.85733 1039.8613 111.36133 C 1041.3653 112.87599 1042.9443 114.30549 1044.5977 115.66016 C 1046.251 117.01482 1047.9687 118.28385 1049.75 119.47852 C 1051.5207 120.66252 1053.3444 121.76296 1055.2324 122.76562 C 1057.1204 123.76829 1059.0501 124.68453 1061.0234 125.50586 C 1062.9968 126.31653 1065.0028 127.04149 1067.0508 127.66016 C 1069.0988 128.27882 1071.1671 128.80275 1073.2578 129.21875 C 1075.3591 129.63475 1077.4711 129.94292 1079.5938 130.15625 C 1081.7164 130.35892 1083.8501 130.4668 1085.9941 130.4668 C 1088.1275 130.4668 1090.2514 130.35892 1092.3848 130.15625 C 1094.5074 129.94292 1096.6194 129.63475 1098.7207 129.21875 C 1100.8114 128.80275 1102.8797 128.27882 1104.9277 127.66016 C 1106.9757 127.04149 1108.9817 126.31653 1110.9551 125.50586 C 1112.9284 124.68453 1114.8581 123.76829 1116.7461 122.76562 C 1118.6341 121.76296 1120.4578 120.66252 1122.2285 119.47852 C 1124.0098 118.28385 1125.7284 117.01482 1127.3711 115.66016 C 1129.0351 114.30549 1130.6132 112.87599 1132.1172 111.36133 C 1133.6319 109.85733 1135.0711 108.26857 1136.4258 106.61523 C 1137.7804 104.97257 1139.0504 103.25594 1140.2344 101.47461 C 1141.4184 99.703943 1142.5179 97.869521 1143.5312 95.992188 C 1144.5339 94.104187 1145.4511 92.172552 1146.2617 90.199219 C 1147.0831 88.225885 1147.7964 86.219875 1148.4258 84.171875 C 1149.0444 82.123875 1149.5567 80.05551 1149.9727 77.964844 C 1150.3887 75.86351 1150.7094 73.76224 1150.9121 71.628906 C 1151.1254 69.50624 1151.2324 67.373568 1151.2324 65.240234 C 1151.2324 63.106901 1151.1254 60.973177 1150.9121 58.839844 C 1150.7094 56.717177 1150.3887 54.60524 1149.9727 52.503906 C 1149.5567 50.41324 1149.0444 48.343974 1148.4258 46.306641 C 1147.7964 44.258641 1147.0831 42.242865 1146.2617 40.269531 C 1145.4511 38.296198 1144.5339 36.365615 1143.5312 34.488281 C 1142.5179 32.600281 1141.4184 30.775474 1140.2344 28.994141 C 1139.0504 27.223474 1137.7804 25.506849 1136.4258 23.853516 C 1135.0711 22.200182 1133.6319 20.620135 1132.1172 19.105469 C 1130.6132 17.601469 1129.0351 16.161307 1127.3711 14.806641 C 1125.7284 13.451974 1124.0098 12.184 1122.2285 11 C 1120.4578 9.8053333 1118.6341 8.7057917 1116.7461 7.703125 C 1114.8581 6.7004583 1112.9284 5.7833229 1110.9551 4.9726562 C 1108.9817 4.1513229 1106.9757 3.4253073 1104.9277 2.8066406 C 1102.8797 2.187974 1100.8114 1.6777188 1098.7207 1.2617188 C 1096.6194 0.84571875 1094.5074 0.52388021 1092.3848 0.31054688 C 1090.2514 0.10788021 1088.1275 0.001953125 1085.9941 0.001953125 z M 714.24023 37.794922 C 641.17136 37.794922 573.62891 59.14976 520.55273 94.371094 C 435.08075 151.51243 393.73331 243.30886 407.51172 334.51953 L 421.30273 423.41602 C 422.67803 434.39202 413.72655 444.20542 400.62305 445.35742 C 281.37994 455.74676 188.33008 539.45894 188.33008 642.21094 C 188.33008 729.9656 257.26142 805.00411 351.68555 830.41211 C 361.33808 832.71611 368.91455 839.64994 370.99023 847.72461 C 405.44899 966.64728 532.95663 1054.4023 685.2832 1054.4023 C 801.08808 1054.4023 902.4004 1003.597 959.61523 926.81836 C 999.58782 873.13303 1076.784 847.72399 1148.4648 867.36133 C 1189.8256 878.90266 1234.6237 884.67383 1280.8105 884.67383 C 1515.1582 884.67383 1705.3948 727.07455 1708.8457 531.94922 C 1713.672 336.82389 1528.2611 173.45214 1295.9766 167.10547 C 1229.8096 165.3668 1167.0808 176.34438 1110.5664 197.12305 C 1063.0042 214.44571 1007.1788 200.00295 980.29688 162.48828 C 925.15774 88.013615 826.5814 37.794922 714.24023 37.794922 z M 258.1875 351.25586 C 256.8115 351.25586 255.43459 351.33098 254.05859 351.45898 C 252.68259 351.59765 251.32732 351.79974 249.97266 352.06641 C 248.61799 352.33307 247.27384 352.67369 245.95117 353.06836 C 244.63917 353.47369 243.33859 353.93346 242.05859 354.4668 C 240.78926 355.00013 239.54217 355.58566 238.32617 356.23633 C 237.11017 356.88699 235.92544 357.59137 234.77344 358.35938 C 233.62144 359.12738 232.52174 359.94955 231.45508 360.82422 C 230.38841 361.69889 229.3661 362.62609 228.38477 363.60742 C 227.4141 364.57809 226.48599 365.6013 225.61133 366.66797 C 224.73666 367.73464 223.91448 368.84499 223.14648 369.98633 C 222.37848 371.12766 221.6741 372.3124 221.02344 373.53906 C 220.37277 374.75506 219.78724 376.00215 219.25391 377.27148 C 218.72057 378.55148 218.2608 379.8414 217.85547 381.16406 C 217.4608 382.48673 217.12018 383.83088 216.85352 385.18555 C 216.58685 386.52955 216.38476 387.89548 216.24609 389.27148 C 216.10743 390.64748 216.04297 392.01372 216.04297 393.40039 C 216.04297 394.77639 216.10743 396.15134 216.24609 397.52734 C 216.38476 398.90334 216.58685 400.26838 216.85352 401.62305 C 217.12018 402.97771 217.4608 404.3121 217.85547 405.63477 C 218.2608 406.95743 218.72057 408.24734 219.25391 409.52734 C 219.78724 410.80734 220.37277 412.04482 221.02344 413.27148 C 221.6741 414.48748 222.37848 415.6605 223.14648 416.8125 C 223.91448 417.9645 224.73666 419.06329 225.61133 420.14062 C 226.48599 421.20729 227.4141 422.21984 228.38477 423.20117 C 229.3661 424.17184 230.38841 425.09994 231.45508 425.97461 C 232.52174 426.84928 233.62144 427.67145 234.77344 428.43945 C 235.92544 429.20745 237.11017 429.9216 238.32617 430.57227 C 239.54217 431.22293 240.78926 431.80936 242.05859 432.33203 C 243.33859 432.86536 244.63917 433.32514 245.95117 433.73047 C 247.27384 434.12514 248.61799 434.46576 249.97266 434.73242 C 251.32732 434.99909 252.68259 435.20118 254.05859 435.33984 C 255.43459 435.47851 256.8115 435.54297 258.1875 435.54297 C 259.57417 435.54297 260.95017 435.47851 262.32617 435.33984 C 263.69151 435.20118 265.05549 434.99909 266.41016 434.73242 C 267.76482 434.46576 269.10987 434.12514 270.42188 433.73047 C 271.74454 433.32514 273.04512 432.86536 274.31445 432.33203 C 275.59445 431.80936 276.84259 431.22293 278.05859 430.57227 C 279.27459 429.9216 280.45828 429.20745 281.59961 428.43945 C 282.75161 427.67145 283.86107 426.84928 284.92773 425.97461 C 285.9944 425.09994 287.01957 424.17184 287.99023 423.20117 C 288.97157 422.21984 289.89877 421.20729 290.77344 420.14062 C 291.6481 419.06329 292.47028 417.9645 293.23828 416.8125 C 294.00628 415.6605 294.70871 414.48748 295.35938 413.27148 C 296.01004 412.04482 296.59753 410.80734 297.13086 409.52734 C 297.65353 408.24734 298.12291 406.95743 298.51758 405.63477 C 298.92291 404.3121 299.25392 402.97771 299.53125 401.62305 C 299.79792 400.26838 300.00001 398.90334 300.13867 397.52734 C 300.26667 396.15134 300.3418 394.77639 300.3418 393.40039 C 300.3418 392.01372 300.26667 390.64748 300.13867 389.27148 C 300.00001 387.89548 299.79792 386.52955 299.53125 385.18555 C 299.25392 383.83088 298.92291 382.48673 298.51758 381.16406 C 298.12291 379.8414 297.65353 378.55148 297.13086 377.27148 C 296.59753 376.00215 296.01004 374.75506 295.35938 373.53906 C 294.70871 372.3124 294.00628 371.12766 293.23828 369.98633 C 292.47028 368.84499 291.6481 367.73464 290.77344 366.66797 C 289.89877 365.6013 288.97157 364.57809 287.99023 363.60742 C 287.01957 362.62609 285.9944 361.69889 284.92773 360.82422 C 283.86107 359.94955 282.75161 359.12738 281.59961 358.35938 C 280.45828 357.59137 279.27459 356.88699 278.05859 356.23633 C 276.84259 355.58566 275.59445 355.00013 274.31445 354.4668 C 273.04512 353.93346 271.74454 353.47369 270.42188 353.06836 C 269.10987 352.67369 267.76482 352.33307 266.41016 352.06641 C 265.05549 351.79974 263.69151 351.59765 262.32617 351.45898 C 260.95017 351.33098 259.57417 351.25586 258.1875 351.25586 z M 1119.4766 947.33008 C 1117.3219 947.33008 1115.1674 947.44772 1113.0234 947.65039 C 1110.8794 947.86372 1108.7468 948.18361 1106.6348 948.59961 C 1104.5228 949.02628 1102.4317 949.5493 1100.373 950.16797 C 1098.3037 950.7973 1096.2779 951.52242 1094.2832 952.34375 C 1092.2992 953.17575 1090.3459 954.09214 1088.4473 955.10547 C 1086.5486 956.1188 1084.7041 957.22916 1082.9121 958.42383 C 1081.1094 959.61849 1079.3808 960.9081 1077.7168 962.27344 C 1076.0528 963.63877 1074.4541 965.0908 1072.9395 966.60547 C 1071.4141 968.14147 1069.963 969.73053 1068.5977 971.39453 C 1067.2323 973.05853 1065.9514 974.78613 1064.7461 976.57812 C 1063.5514 978.38079 1062.443 980.21567 1061.4297 982.125 C 1060.4164 984.02367 1059.498 985.96432 1058.666 987.95898 C 1057.8447 989.95365 1057.1196 991.98145 1056.4902 994.05078 C 1055.8609 996.09878 1055.3379 998.18788 1054.9219 1000.3105 C 1054.4952 1002.4225 1054.186 1004.5465 1053.9727 1006.7012 C 1053.77 1008.8345 1053.6543 1010.9879 1053.6543 1013.1426 C 1053.6543 1015.2972 1053.77 1017.4537 1053.9727 1019.5977 C 1054.186 1021.7417 1054.4952 1023.8743 1054.9219 1025.9863 C 1055.3379 1028.0983 1055.8609 1030.1894 1056.4902 1032.248 C 1057.1196 1034.3174 1057.8447 1036.3441 1058.666 1038.3281 C 1059.498 1040.3228 1060.4164 1042.2625 1061.4297 1044.1719 C 1062.443 1046.0705 1063.5514 1047.917 1064.7461 1049.709 C 1065.9514 1051.501 1067.2323 1053.2286 1068.5977 1054.8926 C 1069.963 1056.5672 1071.4141 1058.1563 1072.9395 1059.6816 C 1074.4541 1061.207 1076.0528 1062.6483 1077.7168 1064.0137 C 1079.3808 1065.3897 1081.1094 1066.6686 1082.9121 1067.8633 C 1084.7041 1069.0686 1086.5486 1070.1674 1088.4473 1071.1914 C 1090.3459 1072.2047 1092.2992 1073.1231 1094.2832 1073.9551 C 1096.2779 1074.7764 1098.3037 1075.5005 1100.373 1076.1191 C 1102.4317 1076.7485 1104.5228 1077.2706 1106.6348 1077.6973 C 1108.7468 1078.1133 1110.8794 1078.4341 1113.0234 1078.6367 C 1115.1674 1078.8501 1117.3219 1078.957 1119.4766 1078.957 C 1121.6312 1078.957 1123.777 1078.8501 1125.9316 1078.6367 C 1128.0756 1078.4341 1130.2083 1078.1133 1132.3203 1077.6973 C 1134.4323 1077.2706 1136.5234 1076.7485 1138.582 1076.1191 C 1140.6514 1075.5005 1142.6674 1074.7764 1144.6621 1073.9551 C 1146.6568 1073.1231 1148.5974 1072.2047 1150.4961 1071.1914 C 1152.4054 1070.1674 1154.251 1069.0686 1156.043 1067.8633 C 1157.835 1066.6686 1159.5626 1065.3897 1161.2266 1064.0137 C 1162.8906 1062.6483 1164.4903 1061.207 1166.0156 1059.6816 C 1167.541 1058.1563 1168.9814 1056.5672 1170.3574 1054.8926 C 1171.7228 1053.2286 1173.0017 1051.501 1174.207 1049.709 C 1175.4017 1047.917 1176.5014 1046.0705 1177.5254 1044.1719 C 1178.5387 1042.2625 1179.456 1040.3228 1180.2773 1038.3281 C 1181.1093 1036.3441 1181.8345 1034.3174 1182.4531 1032.248 C 1183.0825 1030.1894 1183.6046 1028.0983 1184.0312 1025.9863 C 1184.4473 1023.8743 1184.7671 1021.7417 1184.9805 1019.5977 C 1185.1831 1017.4537 1185.291 1015.2972 1185.291 1013.1426 C 1185.291 1010.9879 1185.1831 1008.8345 1184.9805 1006.7012 C 1184.7671 1004.5465 1184.4473 1002.4225 1184.0312 1000.3105 C 1183.6046 998.18788 1183.0825 996.09878 1182.4531 994.05078 C 1181.8345 991.98145 1181.1093 989.95365 1180.2773 987.95898 C 1179.456 985.96432 1178.5387 984.02367 1177.5254 982.125 C 1176.5014 980.21567 1175.4017 978.38079 1174.207 976.57812 C 1173.0017 974.78613 1171.7228 973.05853 1170.3574 971.39453 C 1168.9814 969.73053 1167.541 968.14147 1166.0156 966.60547 C 1164.4903 965.0908 1162.8906 963.63877 1161.2266 962.27344 C 1159.5626 960.9081 1157.835 959.61849 1156.043 958.42383 C 1154.251 957.22916 1152.4054 956.1188 1150.4961 955.10547 C 1148.5974 954.09214 1146.6568 953.17575 1144.6621 952.34375 C 1142.6674 951.52242 1140.6514 950.7973 1138.582 950.16797 C 1136.5234 949.5493 1134.4323 949.02628 1132.3203 948.59961 C 1130.2083 948.18361 1128.0756 947.86372 1125.9316 947.65039 C 1123.777 947.44772 1121.6312 947.33008 1119.4766 947.33008 z "
     transform="matrix(0.9375,0,0,0.9375,0,-0.0019989)"
     id="Imported Path #10" />
</svg>
