<?xml version="1.0" encoding="UTF-8" standalone="no"?>
<svg
   xmlns:dc="http://purl.org/dc/elements/1.1/"
   xmlns:cc="http://creativecommons.org/ns#"
   xmlns:rdf="http://www.w3.org/1999/02/22-rdf-syntax-ns#"
   xmlns:svg="http://www.w3.org/2000/svg"
   xmlns="http://www.w3.org/2000/svg"
   xmlns:sodipodi="http://sodipodi.sourceforge.net/DTD/sodipodi-0.dtd"
   xmlns:inkscape="http://www.inkscape.org/namespaces/inkscape"
   width="20in"
   height="11.2556in"
   viewBox="0 0 1800 1013"
   version="1.1"
   id="svg6"
   sodipodi:docname="2.svg"
   inkscape:version="0.92.5 (2060ec1f9f, 2020-04-08)">
  <metadata
     id="metadata12">
    <rdf:RDF>
      <cc:Work
         rdf:about="">
        <dc:format>image/svg+xml</dc:format>
        <dc:type
           rdf:resource="http://purl.org/dc/dcmitype/StillImage" />
      </cc:Work>
    </rdf:RDF>
  </metadata>
  <defs
     id="defs10" />
  <sodipodi:namedview
     pagecolor="#ffffff"
     bordercolor="#666666"
     borderopacity="1"
     objecttolerance="10"
     gridtolerance="10"
     guidetolerance="10"
     inkscape:pageopacity="0"
     inkscape:pageshadow="2"
     inkscape:window-width="1366"
     inkscape:window-height="715"
     id="namedview8"
     showgrid="false"
     inkscape:zoom="0.3125"
     inkscape:cx="422.8262"
     inkscape:cy="540.2688"
     inkscape:window-x="1360"
     inkscape:window-y="24"
     inkscape:window-maximized="1"
     inkscape:current-layer="svg6" />
  <path
     style="fill:#074687;stroke:none;stroke-width:1.14314687;fill-opacity:1"
     d="M 912.73633 0.26953125 C 910.79499 0.26953125 908.86321 0.36464063 906.92188 0.55664062 C 904.99121 0.74864062 903.07144 1.0261562 901.16211 1.4101562 C 899.26344 1.7941562 897.38725 2.2636927 895.53125 2.8183594 C 893.66458 3.3943594 891.84083 4.04525 890.04883 4.78125 C 888.24616 5.5279167 886.49573 6.3589583 884.78906 7.265625 C 883.07173 8.1829583 881.40754 9.1863385 879.79688 10.263672 C 878.18621 11.351672 876.6299 12.493135 875.11523 13.730469 C 873.6219 14.967802 872.18174 16.268531 870.81641 17.644531 C 869.44041 19.009865 868.13772 20.451078 866.90039 21.955078 C 865.67372 23.459078 864.51288 25.016286 863.43555 26.626953 C 862.35821 28.23762 861.35393 29.910521 860.44727 31.617188 C 859.52993 33.334521 858.69889 35.084953 857.96289 36.876953 C 857.21622 38.67962 856.56533 40.503375 856 42.359375 C 855.43467 44.215375 854.96603 46.103286 854.58203 48.001953 C 854.2087 49.911286 853.92052 51.831052 853.72852 53.761719 C 853.54718 55.692385 853.43945 57.634839 853.43945 59.576172 C 853.43945 61.517505 853.54718 63.458005 853.72852 65.388672 C 853.92052 67.319339 854.2087 69.239104 854.58203 71.148438 C 854.96603 73.047104 855.43467 74.935016 856 76.791016 C 856.56533 78.647016 857.21622 80.481438 857.96289 82.273438 C 858.69889 84.065438 859.52993 85.81587 860.44727 87.533203 C 861.35393 89.23987 862.35821 90.914724 863.43555 92.525391 C 864.51288 94.136057 865.67372 95.703932 866.90039 97.197266 C 868.13772 98.701266 869.44041 100.14053 870.81641 101.50586 C 872.18174 102.88186 873.6219 104.19326 875.11523 105.41992 C 876.6299 106.65726 878.18621 107.80939 879.79688 108.88672 C 881.40754 109.96405 883.07173 110.96743 884.78906 111.88477 C 886.49573 112.8021 888.24616 113.62443 890.04883 114.37109 C 891.84083 115.10709 893.66458 115.7667 895.53125 116.33203 C 897.38725 116.89736 899.26344 117.3669 901.16211 117.74023 C 903.07144 118.12423 904.99121 118.40175 906.92188 118.59375 C 908.86321 118.78575 910.79499 118.88281 912.73633 118.88281 C 914.67766 118.88281 916.61816 118.78575 918.54883 118.59375 C 920.47949 118.40175 922.40016 118.12423 924.29883 117.74023 C 926.20816 117.3669 928.08451 116.89736 929.95117 116.33203 C 931.80717 115.7667 933.63183 115.10709 935.42383 114.37109 C 937.21583 113.62443 938.97693 112.8021 940.68359 111.88477 C 942.40093 110.96743 944.06316 109.96405 945.67383 108.88672 C 947.29516 107.80939 948.85237 106.65726 950.3457 105.41992 C 951.8497 104.19326 953.29002 102.88186 954.66602 101.50586 C 956.03135 100.14053 957.33298 98.701266 958.57031 97.197266 C 959.79698 95.703932 960.95978 94.136057 962.03711 92.525391 C 963.11444 90.914724 964.1061 89.23987 965.02344 87.533203 C 965.94077 85.81587 966.77286 84.065438 967.51953 82.273438 C 968.25553 80.481438 968.90732 78.647016 969.47266 76.791016 C 970.03799 74.935016 970.50662 73.047104 970.89062 71.148438 C 971.26396 69.239104 971.55214 67.319339 971.74414 65.388672 C 971.93614 63.458005 972.02148 61.517505 972.02148 59.576172 C 972.02148 57.634839 971.93614 55.692385 971.74414 53.761719 C 971.55214 51.831052 971.26396 49.911286 970.89062 48.001953 C 970.50663 46.103286 970.03799 44.215375 969.47266 42.359375 C 968.90732 40.503375 968.25553 38.67962 967.51953 36.876953 C 966.77286 35.084953 965.94077 33.334521 965.02344 31.617188 C 964.1061 29.910521 963.11444 28.23762 962.03711 26.626953 C 960.95978 25.016286 959.79698 23.459078 958.57031 21.955078 C 957.33298 20.451078 956.03135 19.009865 954.66602 17.644531 C 953.29002 16.268531 951.8497 14.967802 950.3457 13.730469 C 948.85237 12.493135 947.29516 11.351672 945.67383 10.263672 C 944.06316 9.1863385 942.40093 8.1829583 940.68359 7.265625 C 938.97693 6.3589583 937.21583 5.5279167 935.42383 4.78125 C 933.63183 4.04525 931.80717 3.3943594 929.95117 2.8183594 C 928.08451 2.2636927 926.20816 1.7941562 924.29883 1.4101562 C 922.40016 1.0261562 920.47949 0.74864062 918.54883 0.55664062 C 916.61816 0.36464063 914.67766 0.26953125 912.73633 0.26953125 z M 1246.5566 123.05273 C 1170.8492 123.94539 1102.3471 153.09797 1054.6367 198.16797 C 1008.0335 242.48797 930.61854 249.35758 872.56055 217.51758 C 794.42299 174.44558 701.22968 151.33998 600.88086 155.08398 C 362.89085 165.07865 170.07108 333.0162 158.5918 540.26953 C 145.69138 773.12286 359.31251 965.40039 623.82617 965.40039 C 700.5181 965.40039 773.63373 949.16389 837.4375 920.44922 C 900.51845 891.73455 977.20921 906.72273 1019.5 956.66406 C 1095.4936 1046.5521 1227.3892 1098.3711 1370.041 1073.4004 C 1492.6134 1052.1737 1615.1868 944.80126 1639.5664 837.41992 C 1663.9339 726.92392 1619.4982 623.91724 1537.0605 556.50391 C 1496.9137 524.66391 1481.8578 474.09339 1499.7812 428.52539 C 1509.8148 404.17339 1514.838 377.33476 1514.1152 349.85742 C 1512.6818 228.75876 1400.1428 128.24786 1261.791 123.25586 C 1256.6838 123.06053 1251.6038 122.99322 1246.5566 123.05273 z M 1667.8828 337.37891 C 1666.2508 337.37891 1664.6183 337.42143 1662.9863 337.49609 C 1661.3543 337.58143 1659.7218 337.69742 1658.0898 337.85742 C 1656.4685 338.01742 1654.8479 338.22146 1653.2266 338.4668 C 1651.6159 338.70146 1650.0063 338.97883 1648.4062 339.29883 C 1646.7956 339.61883 1645.2056 339.98033 1643.627 340.375 C 1642.0376 340.76967 1640.4577 341.2084 1638.9004 341.67773 C 1637.3324 342.15773 1635.786 342.66799 1634.25 343.22266 C 1632.7033 343.76666 1631.1787 344.35504 1629.6641 344.98438 C 1628.1601 345.61371 1626.6673 346.27346 1625.1953 346.9668 C 1623.7126 347.6708 1622.2505 348.40778 1620.8105 349.17578 C 1619.3705 349.94378 1617.9529 350.74327 1616.5449 351.58594 C 1615.1476 352.4286 1613.7716 353.30427 1612.4062 354.21094 C 1611.0516 355.1176 1609.7065 356.06644 1608.3945 357.03711 C 1607.0825 358.00778 1605.8025 359.01026 1604.5332 360.04492 C 1603.2745 361.09026 1602.0383 362.15719 1600.8223 363.25586 C 1599.6169 364.35453 1598.4322 365.47405 1597.2695 366.63672 C 1596.1175 367.78872 1594.9873 368.97345 1593.8887 370.18945 C 1592.8007 371.39479 1591.7339 372.63196 1590.6992 373.89062 C 1589.6539 375.15996 1588.6504 376.44972 1587.6797 377.76172 C 1586.709 379.07372 1585.7602 380.41877 1584.8535 381.77344 C 1583.9468 383.1281 1583.0712 384.51478 1582.2285 385.91211 C 1581.3965 387.30944 1580.5864 388.73773 1579.8184 390.17773 C 1579.0504 391.61773 1578.3144 393.07878 1577.6211 394.55078 C 1576.9171 396.03345 1576.2563 397.5283 1575.627 399.04297 C 1574.9976 400.54697 1574.4112 402.07052 1573.8672 403.61719 C 1573.3125 405.15319 1572.8003 406.70153 1572.3203 408.26953 C 1571.851 409.83753 1571.4249 411.40481 1571.0195 412.99414 C 1570.6249 414.57281 1570.2614 416.17344 1569.9414 417.77344 C 1569.6321 419.3841 1569.344 420.9948 1569.1094 422.60547 C 1568.864 424.2268 1568.6717 425.84742 1568.5117 427.46875 C 1568.3411 429.10075 1568.2231 430.73323 1568.1484 432.36523 C 1568.0631 433.99723 1568.0312 435.62972 1568.0312 437.26172 C 1568.0313 438.89372 1568.0631 440.53597 1568.1484 442.16797 C 1568.2231 443.79997 1568.3411 445.42073 1568.5117 447.05273 C 1568.6717 448.68473 1568.864 450.30535 1569.1094 451.91602 C 1569.344 453.53735 1569.6321 455.14805 1569.9414 456.74805 C 1570.2614 458.34805 1570.6249 459.94868 1571.0195 461.52734 C 1571.4249 463.11668 1571.851 464.69567 1572.3203 466.26367 C 1572.8003 467.82101 1573.3125 469.37806 1573.8672 470.91406 C 1574.4112 472.45006 1574.9976 473.97557 1575.627 475.49023 C 1576.2563 476.99423 1576.9171 478.4987 1577.6211 479.9707 C 1578.3144 481.45337 1579.0504 482.90285 1579.8184 484.35352 C 1580.5864 485.78285 1581.3965 487.21204 1582.2285 488.60938 C 1583.0712 490.01737 1583.9468 491.39443 1584.8535 492.75977 C 1585.7602 494.11443 1586.709 495.44777 1587.6797 496.75977 C 1588.6504 498.07177 1589.6539 499.36153 1590.6992 500.63086 C 1591.7339 501.88953 1592.8007 503.12775 1593.8887 504.34375 C 1594.9873 505.54908 1596.1175 506.73186 1597.2695 507.89453 C 1598.4322 509.04653 1599.6169 510.17763 1600.8223 511.26562 C 1602.0383 512.36429 1603.2745 513.4419 1604.5332 514.47656 C 1605.8025 515.51123 1607.0825 516.51476 1608.3945 517.49609 C 1609.7065 518.46676 1611.0516 519.40388 1612.4062 520.31055 C 1613.7716 521.21721 1615.1476 522.10355 1616.5449 522.93555 C 1617.9529 523.77821 1619.3705 524.58942 1620.8105 525.35742 C 1622.2505 526.12542 1623.7126 526.86135 1625.1953 527.55469 C 1626.6673 528.25869 1628.1601 528.91949 1629.6641 529.54883 C 1631.1787 530.16749 1632.7033 530.75393 1634.25 531.30859 C 1635.786 531.86326 1637.3324 532.37637 1638.9004 532.8457 C 1640.4577 533.3257 1642.0376 533.75092 1643.627 534.15625 C 1645.2056 534.55092 1646.7956 534.90371 1648.4062 535.23438 C 1650.0063 535.54371 1651.6159 535.82107 1653.2266 536.06641 C 1654.8479 536.31174 1656.4685 536.50406 1658.0898 536.66406 C 1659.7218 536.82406 1661.3543 536.95072 1662.9863 537.02539 C 1664.6183 537.10006 1666.2508 537.14258 1667.8828 537.14258 C 1669.5255 537.14258 1671.158 537.10006 1672.7793 537.02539 C 1674.422 536.95072 1676.0525 536.82406 1677.6738 536.66406 C 1679.2952 536.50406 1680.9284 536.31174 1682.5391 536.06641 C 1684.1497 535.82107 1685.7604 535.54371 1687.3711 535.23438 C 1688.9711 534.90371 1690.5591 534.55092 1692.1484 534.15625 C 1693.7378 533.75092 1695.307 533.3257 1696.875 532.8457 C 1698.443 532.37637 1699.9894 531.86326 1701.5254 531.30859 C 1703.0614 530.75393 1704.5869 530.16749 1706.1016 529.54883 C 1707.6162 528.91949 1709.11 528.25869 1710.582 527.55469 C 1712.0647 526.86135 1713.5142 526.12542 1714.9648 525.35742 C 1716.3942 524.58942 1717.8234 523.77821 1719.2207 522.93555 C 1720.6287 522.10355 1722.0058 521.21721 1723.3711 520.31055 C 1724.7258 519.40388 1726.0591 518.46676 1727.3711 517.49609 C 1728.6831 516.51476 1729.9738 515.51123 1731.2324 514.47656 C 1732.5018 513.4419 1733.738 512.36429 1734.9434 511.26562 C 1736.1594 510.17762 1737.3441 509.04653 1738.4961 507.89453 C 1739.6481 506.73186 1740.7783 505.54908 1741.877 504.34375 C 1742.9756 503.12775 1744.0435 501.88953 1745.0781 500.63086 C 1746.1128 499.36153 1747.125 498.07177 1748.0957 496.75977 C 1749.0664 495.44777 1750.0054 494.11443 1750.9121 492.75977 C 1751.8294 491.39443 1752.7032 490.01737 1753.5352 488.60938 C 1754.3778 487.21204 1755.189 485.78285 1755.957 484.35352 C 1756.725 482.90285 1757.461 481.45337 1758.1543 479.9707 C 1758.8583 478.4987 1759.52 476.99423 1760.1387 475.49023 C 1760.768 473.97557 1761.3555 472.45006 1761.9102 470.91406 C 1762.4648 469.37806 1762.976 467.82101 1763.4453 466.26367 C 1763.9146 464.69567 1764.3525 463.11668 1764.7578 461.52734 C 1765.1525 459.94868 1765.5042 458.34805 1765.8242 456.74805 C 1766.1442 455.14805 1766.4207 453.53735 1766.666 451.91602 C 1766.9007 450.30535 1767.1037 448.68473 1767.2637 447.05273 C 1767.4237 445.42073 1767.5416 443.79997 1767.627 442.16797 C 1767.7016 440.53597 1767.7441 438.89372 1767.7441 437.26172 C 1767.7441 435.62972 1767.7016 433.99723 1767.627 432.36523 C 1767.5416 430.73323 1767.4237 429.10075 1767.2637 427.46875 C 1767.1037 425.84742 1766.9007 424.2268 1766.666 422.60547 C 1766.4207 420.9948 1766.1442 419.3841 1765.8242 417.77344 C 1765.5042 416.17344 1765.1525 414.57281 1764.7578 412.99414 C 1764.3525 411.40481 1763.9146 409.83753 1763.4453 408.26953 C 1762.976 406.70153 1762.4648 405.15319 1761.9102 403.61719 C 1761.3555 402.07052 1760.768 400.54697 1760.1387 399.04297 C 1759.52 397.5283 1758.8583 396.03345 1758.1543 394.55078 C 1757.461 393.07878 1756.725 391.61773 1755.957 390.17773 C 1755.189 388.73773 1754.3778 387.30944 1753.5352 385.91211 C 1752.7032 384.51478 1751.8294 383.1281 1750.9121 381.77344 C 1750.0054 380.41877 1749.0664 379.07372 1748.0957 377.76172 C 1747.125 376.44972 1746.1128 375.15996 1745.0781 373.89062 C 1744.0435 372.63196 1742.9756 371.39479 1741.877 370.18945 C 1740.7783 368.97345 1739.6481 367.78872 1738.4961 366.63672 C 1737.3441 365.47405 1736.1594 364.35453 1734.9434 363.25586 C 1733.738 362.15719 1732.5018 361.09026 1731.2324 360.04492 C 1729.9738 359.01026 1728.6831 358.00778 1727.3711 357.03711 C 1726.0591 356.06644 1724.7258 355.1176 1723.3711 354.21094 C 1722.0058 353.30427 1720.6287 352.4286 1719.2207 351.58594 C 1717.8234 350.74327 1716.4048 349.94378 1714.9648 349.17578 C 1713.5142 348.40778 1712.0647 347.6708 1710.582 346.9668 C 1709.11 346.27346 1707.6162 345.61371 1706.1016 344.98438 C 1704.5869 344.35504 1703.0614 343.76666 1701.5254 343.22266 C 1699.9894 342.66799 1698.443 342.15773 1696.875 341.67773 C 1695.307 341.2084 1693.7378 340.76967 1692.1484 340.375 C 1690.5591 339.98033 1688.9711 339.61883 1687.3711 339.29883 C 1685.7604 338.97883 1684.1497 338.70146 1682.5391 338.4668 C 1680.9284 338.22146 1679.2952 338.01742 1677.6738 337.85742 C 1676.0525 337.69742 1674.422 337.58143 1672.7793 337.49609 C 1671.158 337.42143 1669.5255 337.37891 1667.8828 337.37891 z M 1089.0371 534.64844 C 1089.0371 535.27777 1089.7602 535.89453 1090.4707 535.89453 L 1089.0371 537.14258 L 1089.0371 534.64844 z M 892.13867 976.01367 C 890.89067 976.01367 889.65425 976.07603 888.40625 976.19336 C 887.16892 976.32136 885.94151 976.50271 884.71484 976.74805 C 883.48818 976.99338 882.28256 977.29358 881.08789 977.65625 C 879.89322 978.01892 878.72036 978.43406 877.56836 978.91406 C 876.41636 979.39406 875.29593 979.92701 874.19727 980.51367 C 873.0986 981.10034 872.02099 981.74026 870.98633 982.43359 C 869.95166 983.12693 868.95023 983.86406 867.99023 984.66406 C 867.03023 985.44273 866.10213 986.28459 865.2168 987.16992 C 864.34213 988.04459 863.49832 988.97269 862.70898 989.94336 C 861.91965 990.90336 861.1738 991.90674 860.48047 992.94141 C 859.78714 993.97607 859.14721 995.04196 858.56055 996.14062 C 857.98455 997.23929 857.44004 998.36948 856.9707 999.52148 C 856.4907 1000.6735 856.06489 1001.8483 855.71289 1003.043 C 855.35022 1004.2376 855.03935 1005.4413 854.80469 1006.668 C 854.55935 1007.8946 854.378 1009.122 854.25 1010.3594 C 854.13267 1011.6074 854.06836 1012.8457 854.06836 1014.0938 C 854.06836 1015.3418 854.13267 1016.5888 854.25 1017.8262 C 854.378 1019.0635 854.55935 1020.3016 854.80469 1021.5176 C 855.03935 1022.7442 855.35022 1023.9586 855.71289 1025.1426 C 856.06489 1026.3372 856.4907 1027.5121 856.9707 1028.6641 C 857.44004 1029.8161 857.98455 1030.9463 858.56055 1032.0449 C 859.14721 1033.1436 859.78714 1034.2212 860.48047 1035.2559 C 861.1738 1036.2905 861.91965 1037.292 862.70898 1038.252 C 863.49832 1039.2226 864.34213 1040.1401 865.2168 1041.0254 C 866.10213 1041.9001 867.03023 1042.7439 867.99023 1043.5332 C 868.95023 1044.3225 869.95166 1045.0684 870.98633 1045.7617 C 872.02099 1046.4551 873.0986 1047.095 874.19727 1047.6816 C 875.29593 1048.2683 876.41636 1048.8022 877.56836 1049.2715 C 878.72036 1049.7515 879.89322 1050.1677 881.08789 1050.541 C 882.28256 1050.893 883.48818 1051.2019 884.71484 1051.4473 C 885.94151 1051.6926 887.16892 1051.8749 888.40625 1051.9922 C 889.65425 1052.1202 890.89067 1052.1719 892.13867 1052.1719 C 893.38667 1052.1719 894.63376 1052.1202 895.87109 1051.9922 C 897.10843 1051.8749 898.3465 1051.6926 899.5625 1051.4473 C 900.78917 1051.2019 901.99479 1050.893 903.18945 1050.541 C 904.38412 1050.1677 905.55698 1049.7515 906.70898 1049.2715 C 907.86098 1048.8022 908.99118 1048.2683 910.08984 1047.6816 C 911.18851 1047.095 912.25635 1046.4551 913.29102 1045.7617 C 914.32568 1045.0684 915.32711 1044.3225 916.28711 1043.5332 C 917.25778 1042.7439 918.17521 1041.9001 919.06055 1041.0254 C 919.94588 1040.1401 920.77903 1039.2226 921.56836 1038.252 C 922.35769 1037.292 923.10354 1036.2905 923.79688 1035.2559 C 924.49021 1034.2212 925.13013 1033.1436 925.7168 1032.0449 C 926.30346 1030.9463 926.83641 1029.8161 927.31641 1028.6641 C 927.78574 1027.5121 928.21351 1026.3372 928.57617 1025.1426 C 928.92817 1023.9586 929.23709 1022.7442 929.48242 1021.5176 C 929.72776 1020.3016 929.91001 1019.0635 930.02734 1017.8262 C 930.15534 1016.5888 930.21875 1015.3417 930.21875 1014.0938 C 930.21875 1012.8457 930.15534 1011.6074 930.02734 1010.3594 C 929.91001 1009.122 929.72776 1007.8946 929.48242 1006.668 C 929.23709 1005.4413 928.92817 1004.2376 928.57617 1003.043 C 928.21351 1001.8483 927.78574 1000.6735 927.31641 999.52148 C 926.83641 998.36948 926.30346 997.23929 925.7168 996.14062 C 925.13013 995.04196 924.49021 993.97607 923.79688 992.94141 C 923.10354 991.90674 922.35769 990.90336 921.56836 989.94336 C 920.77903 988.97269 919.94588 988.04459 919.06055 987.16992 C 918.17521 986.28459 917.25778 985.44273 916.28711 984.66406 C 915.32711 983.86406 914.32568 983.12693 913.29102 982.43359 C 912.25635 981.74026 911.18851 981.10034 910.08984 980.51367 C 908.99118 979.92701 907.86098 979.39406 906.70898 978.91406 C 905.55698 978.43406 904.38412 978.01892 903.18945 977.65625 C 901.99479 977.29358 900.78917 976.99338 899.5625 976.74805 C 898.3465 976.50271 897.10843 976.32136 895.87109 976.19336 C 894.63376 976.07603 893.38667 976.01367 892.13867 976.01367 z "
     transform="matrix(0.9375,0,0,0.9375,0,-0.0019989)"
     id="Imported Path #10" />
</svg>
