<?xml version="1.0" encoding="UTF-8" standalone="no"?>
<svg
   xmlns:dc="http://purl.org/dc/elements/1.1/"
   xmlns:cc="http://creativecommons.org/ns#"
   xmlns:rdf="http://www.w3.org/1999/02/22-rdf-syntax-ns#"
   xmlns:svg="http://www.w3.org/2000/svg"
   xmlns="http://www.w3.org/2000/svg"
   xmlns:sodipodi="http://sodipodi.sourceforge.net/DTD/sodipodi-0.dtd"
   xmlns:inkscape="http://www.inkscape.org/namespaces/inkscape"
   width="20in"
   height="11.2556in"
   viewBox="0 0 1800 1013"
   version="1.1"
   id="svg3"
   sodipodi:docname="3.svg"
   inkscape:version="0.92.5 (2060ec1f9f, 2020-04-08)">
  <metadata
     id="metadata9">
    <rdf:RDF>
      <cc:Work
         rdf:about="">
        <dc:format>image/svg+xml</dc:format>
        <dc:type
           rdf:resource="http://purl.org/dc/dcmitype/StillImage" />
      </cc:Work>
    </rdf:RDF>
  </metadata>
  <defs
     id="defs7" />
  <sodipodi:namedview
     pagecolor="#ffffff"
     bordercolor="#666666"
     borderopacity="1"
     objecttolerance="10"
     gridtolerance="10"
     guidetolerance="10"
     inkscape:pageopacity="0"
     inkscape:pageshadow="2"
     inkscape:window-width="1366"
     inkscape:window-height="715"
     id="namedview5"
     showgrid="false"
     inkscape:zoom="0.15625"
     inkscape:cx="-62.729412"
     inkscape:cy="540.2688"
     inkscape:window-x="1360"
     inkscape:window-y="24"
     inkscape:window-maximized="1"
     inkscape:current-layer="svg3" />
  <path
     id="Imported Path #1"
     d="m 1326.9341,142.12 c -12.8424,0 -25.0549,0.55 -37.2557,1.65 -88.6254,8.82 -177.904,-11.02 -247.2716,-58.94 C 992.30865,50.68 928.71487,29.75 859.35894,29.75 816.95921,29.75 775.8542,37.46 739.25162,51.78 698.14663,67.75 649.97306,63.9 612.72894,42.41 561.33603,12.67 499.037,-3.31 432.2472,0 281.95268,7.71 155.43,112.92 155.43,241.82 c 0,149.83 112.38555,214.28 198.45643,241.82 52.02278,16.52 83.49307,62.8 75.78296,110.17 -5.13229,32.5 -8.98151,67.2 -7.0569,94.19 11.55932,174.62 177.26239,315.64 381.50432,324.45 177.27405,7.71 330.13469,-83.18 393.07539,-213.73 21.8355,-45.16 73.8699,-73.81 131.025,-73.26 0,0 1.2831,0 1.2831,0 188.1918,0 340.3993,-130.55 339.7694,-291.95 -1.2947,-160.29 -155.4384,-291.94 -342.3356,-291.39 z m 0,0"
     style="fill:#074687;fill-opacity:1;stroke:none;stroke-width:1.08001399"
     inkscape:connector-curvature="0" />
</svg>
