<?xml version="1.0" encoding="UTF-8" standalone="no"?>
<svg
   xmlns:dc="http://purl.org/dc/elements/1.1/"
   xmlns:cc="http://creativecommons.org/ns#"
   xmlns:rdf="http://www.w3.org/1999/02/22-rdf-syntax-ns#"
   xmlns:svg="http://www.w3.org/2000/svg"
   xmlns="http://www.w3.org/2000/svg"
   xmlns:sodipodi="http://sodipodi.sourceforge.net/DTD/sodipodi-0.dtd"
   xmlns:inkscape="http://www.inkscape.org/namespaces/inkscape"
   width="1689.7584"
   height="3648.3359"
   viewBox="0 0 1584.1485 3420.3015"
   version="1.1"
   id="svg3"
   sodipodi:docname="section_background2.svg"
   inkscape:version="0.92.5 (2060ec1f9f, 2020-04-08)">
  <metadata
     id="metadata9">
    <rdf:RDF>
      <cc:Work
         rdf:about="">
        <dc:format>image/svg+xml</dc:format>
        <dc:type
           rdf:resource="http://purl.org/dc/dcmitype/StillImage" />
        <dc:title></dc:title>
      </cc:Work>
    </rdf:RDF>
  </metadata>
  <defs
     id="defs7" />
  <sodipodi:namedview
     pagecolor="#ffffff"
     bordercolor="#666666"
     borderopacity="1"
     objecttolerance="10"
     gridtolerance="10"
     guidetolerance="10"
     inkscape:pageopacity="0"
     inkscape:pageshadow="2"
     inkscape:window-width="1360"
     inkscape:window-height="715"
     id="namedview5"
     showgrid="false"
     inkscape:zoom="0.22097087"
     inkscape:cx="550.25667"
     inkscape:cy="3189.9861"
     inkscape:window-x="0"
     inkscape:window-y="24"
     inkscape:window-maximized="1"
     inkscape:current-layer="g826"
     units="px" />
  <g
     id="g826"
     style="display:inline"
     transform="translate(-12.972666)">
    <path
       style="display:inline;fill:#074687;fill-opacity:1;stroke:none;stroke-width:1.1519376"
       d="m 952.23828,0 c -2.144,0 -4.27789,0.10560707 -6.40039,0.30859375 -2.1228,0.21344001 -4.23464,0.53517188 -6.33594,0.95117185 -2.0907,0.416 -4.15903,0.9262552 -6.20703,1.5449219 -2.048,0.6187734 -4.0539,1.3446823 -6.02734,2.1660156 -1.97334,0.8106667 -3.90302,1.7278021 -5.79102,2.7304688 -1.888,1.0026667 -3.71175,2.1021013 -5.48242,3.2968751 -1.78133,1.184 -3.49902,2.451974 -5.15234,3.806641 -1.65344,1.354773 -3.23233,2.794828 -4.73633,4.298828 -1.51456,1.514666 -2.95382,3.094713 -4.30859,4.748046 -1.34401,1.653334 -2.6246,3.369959 -3.8086,5.140626 -1.184,1.781333 -2.28355,3.60614 -3.29687,5.49414 -1.00268,1.877334 -1.91981,3.807917 -2.73047,5.78125 -0.82134,1.973334 -1.53462,3.989109 -2.16406,6.03711 -0.61857,2.037333 -1.13183,4.106492 -1.5586,6.197265 -0.416,2.101227 -0.72507,4.213164 -0.92773,6.335938 -0.21334,2.133226 -0.32032,4.267163 -0.32032,6.40039 0,2.133334 0.10698,4.266005 0.32032,6.388672 0.20266,2.133334 0.51173,4.234604 0.92773,6.335938 0.42677,2.090666 0.94003,4.159031 1.5586,6.207031 0.62944,2.048 1.34272,4.05401 2.16406,6.027344 0.81066,1.973333 1.72779,3.904968 2.73047,5.792968 1.01332,1.877334 2.11287,3.711756 3.29687,5.482426 1.184,1.78133 2.46459,3.49795 3.8086,5.14062 1.35477,1.65331 2.79403,3.24209 4.30859,4.7461 1.504,1.51466 3.08289,2.94426 4.73633,4.29882 1.65332,1.35467 3.37101,2.6237 5.15234,3.81836 1.77067,1.184 3.59442,2.28445 5.48242,3.28711 1.888,1.00267 3.81768,1.91901 5.79102,2.74024 1.97344,0.81077 3.97934,1.53573 6.02734,2.15429 2.048,0.61867 4.11633,1.1426 6.20703,1.5586 2.1013,0.416 4.21314,0.72416 6.33594,0.9375 2.1225,0.20266 4.25639,0.31054 6.40039,0.31054 2.13341,0 4.25723,-0.10788 6.39063,-0.31054 2.1226,-0.21334 4.23473,-0.5215 6.33593,-0.9375 2.0908,-0.416 4.15903,-0.93993 6.20704,-1.5586 2.048,-0.61856 4.05394,-1.34352 6.02734,-2.15429 1.97319,-0.82123 3.90301,-1.73757 5.79101,-2.74024 1.888,-1.00266 3.71182,-2.10311 5.48243,-3.28711 1.78139,-1.19466 3.49977,-2.46369 5.14257,-3.81836 1.664,-1.35456 3.24206,-2.78416 4.7461,-4.29882 1.51477,-1.50401 2.95367,-3.09279 4.30857,-4.7461 1.3546,-1.64267 2.6246,-3.35929 3.8086,-5.14062 1.184,-1.77067 2.2835,-3.605092 3.2969,-5.482426 1.0026,-1.888 1.92,-3.819635 2.7305,-5.792968 0.8215,-1.973334 1.5346,-3.979344 2.164,-6.027344 0.6186,-2.048 1.1309,-4.116365 1.5469,-6.207031 0.416,-2.101334 0.7367,-4.202604 0.9394,-6.335938 0.2133,-2.122667 0.3204,-4.255338 0.3204,-6.388672 0,-2.133227 -0.1071,-4.267164 -0.3204,-6.40039 -0.2027,-2.122774 -0.5234,-4.234711 -0.9394,-6.335938 -0.416,-2.090773 -0.9283,-4.159932 -1.5469,-6.197265 -0.6294,-2.048001 -1.3425,-4.063776 -2.164,-6.03711 -0.8105,-1.973333 -1.7279,-3.903916 -2.7305,-5.78125 -1.0134,-1.888 -2.1129,-3.712807 -3.2969,-5.49414 -1.184,-1.770667 -2.454,-3.487292 -3.8086,-5.140626 -1.3549,-1.653333 -2.7938,-3.23338 -4.30857,-4.748046 -1.50404,-1.504 -3.0821,-2.944055 -4.7461,-4.298828 -1.6428,-1.354667 -3.36118,-2.622641 -5.14257,-3.806641 -1.77061,-1.1947738 -3.59443,-2.2942084 -5.48243,-3.2968751 -1.888,-1.0026667 -3.81782,-1.9198021 -5.79101,-2.7304688 -1.97341,-0.8213333 -3.97934,-1.5472422 -6.02734,-2.1660156 -2.04801,-0.6186667 -4.11624,-1.1289219 -6.20704,-1.5449219 -2.1012,-0.41599997 -4.21333,-0.73773184 -6.33593,-0.95117185 C 956.49551,0.10603374 954.37169,0 952.23828,0 Z m -371.7539,37.792969 c -73.06893,0 -140.61124,21.35473 -193.6875,56.576172 C 301.32498,151.51035 259.97741,243.30691 273.75586,334.51758 l 13.79102,88.89648 c 1.37525,10.976 -7.57623,20.78941 -20.67969,21.94141 C 147.62405,455.74477 13.844869,553.03341 13.844869,655.78543 L 15.452384,2769.856 c -9.7033161,265.0834 25.336553,430.1107 77.840585,574.8374 75.350631,207.7866 349.856461,341.6944 609.111331,293.9824 313.9796,-57.7172 245.79588,-323.9995 322.0547,-367.1035 142.6276,-80.8107 345.3651,197.7931 556.1777,73.1211 130.4779,-77.1697 132.4923,-252.3573 115.4569,-501.2258 V 2725.805 l -3.3412,-2193.85773 c 4.8264,-195.12526 -298.2471,-358.49709 -530.5317,-364.84375 -66.1671,-1.73867 -128.8958,9.23891 -185.41015,30.01757 C 929.24833,214.44376 873.42294,200.001 846.54102,162.48633 791.40181,88.011682 692.8255,37.792969 580.48438,37.792969 Z M 124.43164,351.25391 c -1.376,0 -2.75291,0.0746 -4.12891,0.20312 -1.376,0.13856 -2.73127,0.34076 -4.08593,0.60742 -1.35467,0.26656 -2.69881,0.60729 -4.02149,1.00196 -1.312,0.40533 -2.61258,0.86499 -3.89258,1.39843 -1.26933,0.53323 -2.51642,1.11887 -3.73242,1.76954 -1.216,0.65066 -2.40073,1.35504 -3.55273,2.12304 -1.152002,0.768 -2.251698,1.59018 -3.318361,2.46485 -1.066678,0.87477 -2.08899,1.80187 -3.070313,2.7832 -0.970677,0.97067 -1.898771,1.99399 -2.773437,3.06055 -0.874678,1.06666 -1.696844,2.17702 -2.464844,3.31836 -0.768,1.14133 -1.472391,2.32606 -2.123047,3.55273 -0.650677,1.216 -1.236208,2.46298 -1.769531,3.73242 -0.533344,1.28 -0.993104,2.57002 -1.398438,3.89258 -0.394666,1.32267 -0.735307,2.66682 -1.001953,4.02148 -0.266677,1.344 -0.468755,2.70994 -0.607422,4.08594 -0.138656,1.376 -0.203125,2.74224 -0.203125,4.12891 0,1.376 0.06452,2.75095 0.203125,4.12695 0.138667,1.376 0.340745,2.74114 0.607422,4.0957 0.266646,1.35467 0.607287,2.68908 1.001953,4.01172 0.405334,1.3227 0.865094,2.61258 1.398438,3.89258 0.533323,1.28 1.118854,2.51744 1.769531,3.74414 0.650656,1.216 1.355047,2.38902 2.123047,3.54102 0.768,1.152 1.590166,2.25093 2.464844,3.32812 0.874666,1.06681 1.80276,2.07925 2.773437,3.06055 0.981323,0.9707 2.003635,1.89874 3.070313,2.77344 1.066663,0.8746 2.166359,1.69684 3.318361,2.46484 1.152,0.768 2.33673,1.48221 3.55273,2.13281 1.216,0.6507 2.46309,1.23707 3.73242,1.75977 1.28,0.5333 2.58058,0.99313 3.89258,1.39844 1.32268,0.39469 2.66682,0.73525 4.02149,1.00195 1.35466,0.2667 2.70993,0.46872 4.08593,0.60742 1.376,0.13871 2.75291,0.20313 4.12891,0.20313 1.38667,0 2.76267,-0.065 4.13867,-0.20313 1.36536,-0.1387 2.72931,-0.34072 4.08399,-0.60742 1.35464,-0.2667 2.6997,-0.60726 4.01172,-1.00195 1.32265,-0.40531 2.62324,-0.86514 3.89257,-1.39844 1.28,-0.5227 2.52814,-1.10907 3.74414,-1.75977 1.216,-0.6506 2.39969,-1.36481 3.54102,-2.13281 1.152,-0.768 2.26146,-1.59024 3.32813,-2.46484 1.06666,-0.8747 2.09183,-1.80274 3.0625,-2.77344 0.98133,-0.9813 1.90852,-1.99374 2.7832,-3.06055 0.87465,-1.07719 1.69684,-2.17612 2.46484,-3.32812 0.768,-1.152 1.47042,-2.32502 2.1211,-3.54102 0.65064,-1.2267 1.23815,-2.46414 1.77148,-3.74414 0.52267,-1.28 0.99205,-2.56988 1.38672,-3.89258 0.40533,-1.32264 0.73634,-2.65705 1.01367,-4.01172 0.26667,-1.35456 0.46878,-2.7197 0.60742,-4.0957 0.128,-1.376 0.20313,-2.75095 0.20313,-4.12695 0,-1.38667 -0.0751,-2.75291 -0.20313,-4.12891 -0.13864,-1.376 -0.34075,-2.74194 -0.60742,-4.08594 -0.27733,-1.35466 -0.60834,-2.69881 -1.01367,-4.02148 -0.39467,-1.32256 -0.86405,-2.61258 -1.38672,-3.89258 -0.53333,-1.26944 -1.12084,-2.51642 -1.77148,-3.73242 -0.65068,-1.22667 -1.3531,-2.4114 -2.1211,-3.55273 -0.768,-1.14134 -1.59019,-2.2517 -2.46484,-3.31836 -0.87468,-1.06656 -1.80187,-2.08988 -2.7832,-3.06055 -0.97067,-0.98133 -1.99584,-1.90843 -3.0625,-2.7832 -1.06667,-0.87467 -2.17613,-1.69685 -3.32813,-2.46485 -1.14133,-0.768 -2.32502,-1.47238 -3.54102,-2.12304 -1.216,-0.65067 -2.46414,-1.23631 -3.74414,-1.76954 -1.26933,-0.53344 -2.56992,-0.9931 -3.89257,-1.39843 -1.31202,-0.39467 -2.65708,-0.7354 -4.01172,-1.00196 -1.35468,-0.26666 -2.71863,-0.46886 -4.08399,-0.60742 -1.376,-0.128 -2.752,-0.20312 -4.13867,-0.20312 z"
       transform="matrix(0.93749996,0,0,0.93749996,0,-0.00664818)"
       id="Imported Path #1"
       inkscape:connector-curvature="0"
       sodipodi:nodetypes="sccccsccccccccccscccccccccccccccscccccccccccccccsccccccccccsccccssccccccccccccccccsscccccscccccccccscccccscccscccccscccccccccscccccscccccccccccccccs" />
  </g>
  <g
     id="g838"
     style="display:none"
     transform="translate(-12.972666)">
    <path
       style="display:inline;fill:#074687;fill-opacity:1;stroke:none;stroke-width:1.07994151"
       d="m 778.91258,2407.8302 c -642.18264,-0.8693 -779.79599245,484.2892 -691.45021,727.8131 70.64121,194.8 327.99045,320.3385 571.04188,275.6085 294.35587,-54.1099 230.43366,-303.7495 301.92629,-344.1595 133.71336,-75.76 323.77986,185.431 521.41666,68.551 197.6367,-116.89 142.1347,-692.6598 -647.57269,-726.5698 -18.85705,-0.8089 -37.30861,-1.2189 -55.36193,-1.2433 z"
       id="path828"
       inkscape:connector-curvature="0"
       sodipodi:nodetypes="scccccs" />
    <path
       style="display:inline;fill:#074687;fill-opacity:1;stroke:none;stroke-width:1.07170022"
       d="m 1080.09,1941.9001 c -70.9757,0.8369 -135.19648,28.1674 -179.92496,70.4205 -43.69053,41.55 -116.26714,47.9903 -170.69644,18.1403 -73.254,-40.38 -160.6227,-62.0415 -254.6997,-58.5315 -223.1157,9.37 -403.884212,166.8115 -414.646013,361.1114 -12.094198,218.3 188.175643,398.5601 436.157243,398.5601 71.89869,0 140.44461,-15.2217 200.26062,-42.1417 59.1384,-26.92 131.03599,-12.8686 170.68359,33.9514 71.24408,84.2701 194.89626,132.8504 328.63236,109.4403 114.9117,-19.9 229.824,-120.5616 252.68,-221.2316 22.8445,-103.59 -18.8138,-200.1588 -96.0993,-263.3588 -37.6376,-29.85 -51.7525,-77.2599 -34.9493,-119.9798 9.4065,-22.83 14.1157,-47.9912 13.4381,-73.7512 -1.3438,-113.53 -106.8491,-207.759 -236.5539,-212.439 -4.788,-0.1831 -9.5504,-0.2462 -14.2823,-0.1904 z m 394.9933,200.9308 c -1.53,0 -3.0605,0.04 -4.5904,0.1099 -1.53,0.08 -3.0605,0.1887 -4.5905,0.3387 -1.52,0.15 -3.0393,0.3413 -4.5593,0.5713 -1.51,0.22 -3.019,0.48 -4.5191,0.78 -1.5099,0.3 -3.0006,0.6389 -4.4806,1.0089 -1.49,0.37 -2.9711,0.7814 -4.4312,1.2213 -1.47,0.45 -2.9196,0.9284 -4.3596,1.4484 -1.4501,0.51 -2.8795,1.0616 -4.2994,1.6516 -1.41,0.59 -2.8094,1.2085 -4.1894,1.8586 -1.39,0.66 -2.7607,1.3509 -4.1107,2.0709 -1.35,0.72 -2.679,1.4695 -3.999,2.2595 -1.3099,0.79 -2.6,1.6109 -3.8801,2.4609 -1.2699,0.85 -2.5309,1.7396 -3.7609,2.6496 -1.23,0.91 -2.4301,1.8498 -3.62,2.8198 -1.1801,0.98 -2.3391,1.9802 -3.4791,3.0102 -1.13,1.03 -2.2405,2.0796 -3.3306,3.1696 -1.08,1.08 -2.1397,2.1907 -3.1696,3.3307 -1.02,1.13 -2.0202,2.2898 -2.9901,3.4698 -0.9801,1.19 -1.9208,2.3992 -2.8309,3.6292 -0.9099,1.23 -1.7994,2.491 -2.6494,3.761 -0.8501,1.27 -1.671,2.57 -2.461,3.88 -0.78,1.31 -1.5395,2.649 -2.2595,3.999 -0.72,1.35 -1.41,2.7197 -2.06,4.0997 -0.6599,1.39 -1.2795,2.7915 -1.8695,4.2115 -0.59,1.41 -1.1398,2.8383 -1.6498,4.2883 -0.5199,1.44 -1.0001,2.8916 -1.4501,4.3616 -0.4401,1.47 -0.8395,2.9393 -1.2195,4.4293 -0.37,1.48 -0.7107,2.9806 -1.0107,4.4806 -0.2901,1.51 -0.5602,3.02 -0.7801,4.53 -0.2301,1.52 -0.4103,3.0393 -0.5603,4.5593 -0.1599,1.53 -0.2705,3.0605 -0.3406,4.5905 -0.08,1.53 -0.1098,3.0604 -0.1098,4.5903 10e-5,1.53 0.03,3.0696 0.1098,4.5996 0.07,1.53 0.1807,3.0495 0.3406,4.5795 0.15,1.53 0.3302,3.0493 0.5603,4.5593 0.2199,1.52 0.49,3.0301 0.7801,4.5301 0.3,1.5 0.6407,3.0006 1.0107,4.4806 0.38,1.49 0.7794,2.9703 1.2195,4.4403 0.45,1.46 0.9302,2.9197 1.4501,4.3597 0.51,1.44 1.0598,2.8702 1.6498,4.2902 0.59,1.41 1.2096,2.8204 1.8695,4.2004 0.65,1.39 1.34,2.7489 2.06,4.1089 0.72,1.34 1.4795,2.6799 2.2595,3.9899 0.79,1.32 1.6109,2.6109 2.461,3.891 0.85,1.2699 1.7395,2.52 2.6494,3.75 0.9101,1.23 1.8508,2.4391 2.8309,3.6291 0.9699,1.18 1.9701,2.3408 2.9901,3.4808 1.0299,1.13 2.0897,2.2389 3.1696,3.3289 1.0901,1.08 2.2006,2.1404 3.3306,3.1604 1.14,1.03 2.299,2.0403 3.4791,3.0103 1.1899,0.97 2.39,1.9108 3.62,2.8308 1.23,0.91 2.491,1.7885 3.7609,2.6385 1.2801,0.85 2.5702,1.681 3.8801,2.461 1.32,0.7899 2.649,1.5505 3.999,2.2705 1.35,0.72 2.7207,1.4099 4.1107,2.0599 1.38,0.66 2.7794,1.2795 4.1894,1.8695 1.4199,0.58 2.8493,1.1298 4.2994,1.6498 1.44,0.52 2.8896,1.001 4.3596,1.441 1.4601,0.45 2.9412,0.8487 4.4312,1.2287 1.48,0.37 2.9707,0.7007 4.4806,1.0107 1.5001,0.29 3.0091,0.55 4.5191,0.78 1.52,0.23 3.0393,0.4103 4.5593,0.5603 1.53,0.15 3.0605,0.2688 4.5905,0.3388 1.5299,0.07 3.0604,0.1098 4.5904,0.1098 1.5401,0 3.0704,-0.04 4.5905,-0.1098 1.5399,-0.07 3.0686,-0.1888 4.5886,-0.3388 1.52,-0.15 3.0512,-0.3303 4.5611,-0.5603 1.51,-0.23 3.0201,-0.49 4.53,-0.78 1.5,-0.31 2.989,-0.6407 4.4788,-1.0107 1.4901,-0.38 2.9612,-0.7787 4.4312,-1.2287 1.47,-0.44 2.9197,-0.921 4.3597,-1.441 1.44,-0.52 2.8702,-1.0698 4.2902,-1.6498 1.42,-0.59 2.8204,-1.2095 4.2004,-1.8695 1.3902,-0.65 2.749,-1.3399 4.1089,-2.0599 1.3401,-0.72 2.6799,-1.4806 3.9899,-2.2705 1.32,-0.78 2.611,-1.611 3.8909,-2.461 1.2701,-0.85 2.52,-1.7285 3.75,-2.6385 1.23,-0.92 2.4401,-1.8608 3.6201,-2.8308 1.19,-0.97 2.349,-1.9803 3.479,-3.0103 1.14,-1.02 2.2506,-2.0804 3.3306,-3.1604 1.0801,-1.09 2.1396,-2.1989 3.1696,-3.3289 1.0299,-1.14 2.0312,-2.3008 3.0011,-3.4808 0.97,-1.19 1.919,-2.3991 2.829,-3.6291 0.91,-1.23 1.7904,-2.4801 2.6404,-3.75 0.86,-1.2801 1.6791,-2.571 2.4591,-3.891 0.79,-1.31 1.5505,-2.6499 2.2705,-3.9899 0.72,-1.36 1.4099,-2.7189 2.06,-4.1089 0.66,-1.38 1.2803,-2.7904 1.8603,-4.2004 0.59,-1.42 1.1407,-2.8502 1.6607,-4.2902 0.52,-1.44 0.9992,-2.8997 1.4393,-4.3597 0.4399,-1.47 0.8505,-2.9503 1.2305,-4.4403 0.37,-1.48 0.6997,-2.9806 0.9997,-4.4806 0.3,-1.5 0.5591,-3.0101 0.7892,-4.5301 0.2199,-1.51 0.4102,-3.0293 0.5602,-4.5593 0.15,-1.53 0.2606,-3.0495 0.3406,-4.5795 0.07,-1.53 0.1099,-3.0696 0.1099,-4.5996 0,-1.5299 -0.039,-3.0603 -0.1099,-4.5903 -0.08,-1.53 -0.1906,-3.0605 -0.3406,-4.5905 -0.15,-1.52 -0.3403,-3.0393 -0.5602,-4.5593 -0.2301,-1.51 -0.4892,-3.02 -0.7892,-4.53 -0.3,-1.5 -0.6297,-3.0006 -0.9997,-4.4806 -0.38,-1.49 -0.7906,-2.9593 -1.2305,-4.4293 -0.4401,-1.47 -0.9193,-2.9216 -1.4393,-4.3616 -0.52,-1.45 -1.0707,-2.8783 -1.6607,-4.2883 -0.58,-1.42 -1.2003,-2.8215 -1.8603,-4.2115 -0.6501,-1.38 -1.34,-2.7497 -2.06,-4.0997 -0.72,-1.35 -1.4805,-2.689 -2.2705,-3.999 -0.78,-1.31 -1.5991,-2.61 -2.4591,-3.88 -0.85,-1.27 -1.7304,-2.531 -2.6404,-3.761 -0.91,-1.23 -1.859,-2.4392 -2.829,-3.6292 -0.9699,-1.18 -1.9712,-2.3398 -3.0011,-3.4698 -1.03,-1.14 -2.0895,-2.2507 -3.1696,-3.3307 -1.0799,-1.09 -2.1906,-2.1396 -3.3306,-3.1696 -1.13,-1.03 -2.289,-2.0302 -3.479,-3.0102 -1.18,-0.97 -2.3901,-1.9098 -3.6201,-2.8198 -1.23,-0.91 -2.4799,-1.7996 -3.75,-2.6496 -1.2799,-0.85 -2.5709,-1.6709 -3.8909,-2.4609 -1.31,-0.79 -2.6399,-1.5395 -3.9899,-2.2595 -1.3599,-0.72 -2.7187,-1.4109 -4.1089,-2.0709 -1.38,-0.6501 -2.7804,-1.2686 -4.2004,-1.8586 -1.42,-0.59 -2.8502,-1.1416 -4.2902,-1.6516 -1.44,-0.52 -2.8897,-0.9984 -4.3597,-1.4484 -1.47,-0.4399 -2.9411,-0.8513 -4.4312,-1.2213 -1.4898,-0.37 -2.9787,-0.7089 -4.4788,-1.0089 -1.5099,-0.3 -3.02,-0.56 -4.53,-0.78 -1.5099,-0.23 -3.0411,-0.4213 -4.5611,-0.5713 -1.52,-0.15 -3.0487,-0.2587 -4.5886,-0.3387 -1.5201,-0.07 -3.0504,-0.1099 -4.5905,-0.1099 z"
       id="path830"
       inkscape:connector-curvature="0"
       sodipodi:nodetypes="sccccsccccccccsscccccccccscccccccccccscccccccccccccccccccccccccccccccscccccccccscscccccccccccccccccccccccccscscscccccccccscccccccccccccccccccscs" />
    <path
       style="display:inline;fill:#074687;fill-opacity:1;stroke:none;stroke-width:1.09262609"
       d="m 892.72297,-0.00650828 c -2.01,0 -4.01053,0.099 -6.00037,0.2893 -1.99013,0.2001 -3.97003,0.5018 -5.94,0.89179998 -1.96003,0.39 -3.89906,0.8683 -5.81906,1.4483 -1.92,0.5801 -3.80054,1.2607 -5.65064,2.0307 -1.85,0.76 -3.65909,1.6198 -5.42909,2.5598 -1.77,0.94 -3.47976,1.9708 -5.13976,3.0909003 -1.67,1.11 -3.28033,2.2986 -4.83032,3.5686 -1.5501,1.2701 -3.03031,2.6202 -4.44031,4.0302 -1.4199,1.42 -2.76921,2.9013 -4.03931,4.4513 -1.26,1.55 -2.46056,3.1593 -3.57056,4.8193 -1.11,1.67 -2.14082,3.3808 -3.09081,5.1508 -0.94001,1.76 -1.79982,3.5699 -2.55982,5.4199 -0.77,1.85 -1.43871,3.7398 -2.02881,5.6598 -0.5799,1.91 -1.06108,3.8499 -1.46118,5.81 -0.39,1.9699 -0.67975,3.9498 -0.86975,5.9399 -0.2,1.9999 -0.30029,4.0004 -0.30029,6.0003 0,2 0.10029,3.9994 0.30029,5.9894 0.19,2 0.47975,3.97 0.86975,5.94 0.4001,1.96 0.88128,3.899 1.46118,5.819 0.5901,1.92 1.25881,3.8007 2.02881,5.6507 0.76,1.85 1.61981,3.6609 2.55982,5.4309 0.94999,1.76 1.98081,3.4798 3.09081,5.1398 1.11,1.67 2.31056,3.2793 3.57056,4.8193 1.2701,1.549978 2.61941,3.039478 4.03931,4.449478 1.41,1.42 2.89021,2.7602 4.44031,4.0301 1.54999,1.27 3.16032,2.4597 4.83032,3.5797 1.66,1.11 3.36976,2.1417 5.13976,3.0817 1.77,0.94 3.57909,1.799 5.42909,2.5689 1.8501,0.7601 3.73064,1.4398 5.65064,2.0197 1.92,0.58 3.85903,1.0712 5.81906,1.4612 1.96997,0.39 3.94987,0.6789 5.94,0.8789 1.98984,0.19 3.99037,0.2912 6.00037,0.2912 2.00007,0 3.99113,-0.1012 5.99119,-0.2912 1.98994,-0.2 3.97003,-0.4889 5.93991,-0.8789 1.96012,-0.39 3.89906,-0.8812 5.81906,-1.4612 1.92,-0.5799 3.80063,-1.2596 5.65069,-2.0197 1.84987,-0.7699 3.65906,-1.6289 5.42906,-2.5689 1.77,-0.94 3.47981,-1.9717 5.13975,-3.0817 1.67006,-1.12 3.28106,-2.3097 4.82119,-3.5797 1.56,-1.2699 3.03947,-2.6101 4.44951,-4.0301 1.4201,-1.41 2.7691,-2.8995 4.0393,-4.449478 1.2699,-1.54 2.4605,-3.1493 3.5705,-4.8193 1.11,-1.66 2.1408,-3.3798 3.0909,-5.1398 0.9399,-1.77 1.7999,-3.5809 2.5597,-5.4309 0.7702,-1.85 1.4388,-3.7307 2.0289,-5.6507 0.5799,-1.92 1.0602,-3.859 1.4502,-5.819 0.39,-1.97 0.6906,-3.94 0.8807,-5.94 0.1999,-1.99 0.3003,-3.9894 0.3003,-5.9894 0,-1.9999 -0.1004,-4.0004 -0.3003,-6.0003 -0.1901,-1.9901 -0.4907,-3.97 -0.8807,-5.9399 -0.39,-1.9601 -0.8703,-3.9 -1.4502,-5.81 -0.5901,-1.92 -1.2587,-3.8098 -2.0289,-5.6598 -0.7598,-1.85 -1.6198,-3.6599 -2.5597,-5.4199 -0.9501,-1.77 -1.9809,-3.4808 -3.0909,-5.1508 -1.11,-1.66 -2.3006,-3.2693 -3.5705,-4.8193 -1.2702,-1.55 -2.6192,-3.0313 -4.0393,-4.4513 -1.41004,-1.41 -2.88951,-2.7601 -4.44951,-4.0302 -1.54013,-1.27 -3.15113,-2.4586 -4.82119,-3.5686 -1.65994,-1.1201003 -3.36975,-2.1509003 -5.13975,-3.0909003 -1.77,-0.94 -3.57919,-1.7998 -5.42906,-2.5598 -1.85007,-0.77 -3.73069,-1.4506 -5.65069,-2.0307 -1.92,-0.58 -3.85894,-1.0583 -5.81906,-1.4483 -1.96988,-0.38999998 -3.94997,-0.69169998 -5.93991,-0.89179998 -2.00006,-0.1899 -3.99112,-0.2893 -5.99119,-0.2893 z M 544.20365,35.424492 c -68.50211,0 -131.82304,20.0201 -181.58204,53.0402 C 282.49171,142.03457 243.72836,228.09377 256.64566,313.60377 l 12.92908,83.34045 c 1.2893,10.29 -7.10271,19.49006 -19.38721,20.57006 -111.79044,9.73997 -199.02467,88.22017 -199.02467,184.55019 0,82.27 64.6231,152.6186 153.14576,176.4386 9.0492,2.16 16.15225,8.6604 18.09815,16.2305 32.3051,111.49001 151.84345,193.76031 294.64966,193.76031 108.567,0 203.54737,-47.63 257.18628,-119.61 37.47429,-50.33 109.84579,-74.15091 177.04652,-55.7409 38.7757,10.82 80.77397,16.2304 124.07417,16.2304 219.7009,0 398.0477,-147.74931 401.2829,-330.67929 4.5247,-182.92992 -169.298,-336.09102 -387.0648,-342.04102 -62.0317,-1.63 -120.83987,8.6615 -173.82209,28.1415 -44.58958,16.24 -96.92586,2.6999 -122.12766,-32.4701 C 741.93875,82.504492 649.52345,35.424492 544.20365,35.424492 Z M 116.65419,329.29407 c -1.29,0 -2.58084,0.07 -3.87084,0.1905 -1.29,0.1299 -2.56057,0.3194 -3.83057,0.5694 -1.27,0.2499 -2.53014,0.5693 -3.77015,0.9393 -1.23,0.38 -2.44928,0.811 -3.64928,1.3111 -1.19,0.4999 -2.359163,1.0489 -3.499163,1.6589 -1.14,0.61 -2.25068,1.2703 -3.33068,1.9903 -1.08,0.72 -2.11096,1.4908 -3.110957,2.3108 -1.00001,0.8201 -1.95843,1.6893 -2.87842,2.6093 -0.91001,0.91 -1.7801,1.8693 -2.6001,2.8692 -0.82001,1 -1.59079,2.041 -2.31079,3.111 -0.72,1.07 -1.38036,2.1807 -1.99035,3.3307 -0.61001,1.14 -1.15895,2.3091 -1.65894,3.4992 -0.50001,1.2 -0.93104,2.4093 -1.31104,3.6492 -0.37,1.24 -0.68934,2.5002 -0.93932,3.7702 -0.25001,1.26 -0.43946,2.5406 -0.56946,3.8306 -0.12999,1.29 -0.19044,2.5708 -0.19044,3.8708 0,1.29 0.0605,2.579 0.19044,3.869 0.13,1.29 0.31945,2.5698 0.56946,3.8397 0.24998,1.27 0.56932,2.521 0.93932,3.76098 0.38,1.24003 0.81103,2.44932 1.31104,3.64932 0.49999,1.2 1.04893,2.36015 1.65894,3.51018 0.60999,1.14 1.27035,2.23969 1.99035,3.31969 0.72,1.08 1.49078,2.11022 2.31079,3.12009 0.82,1.00013 1.69009,1.94925 2.6001,2.86922 0.91999,0.91003 1.87841,1.78013 2.87842,2.60016 0.999997,0.81994 2.030957,1.59075 3.110957,2.31075 1.08,0.72 2.19068,1.38956 3.33068,1.9995 1.14,0.61003 2.309163,1.15978 3.499163,1.64981 1.2,0.49997 2.41928,0.93103 3.64928,1.311 1.24001,0.37003 2.50015,0.68935 3.77015,0.93938 1.27,0.25003 2.54057,0.4394 3.83057,0.56943 1.29,0.13004 2.58084,0.19041 3.87084,0.19041 1.3,0 2.59,-0.0609 3.88,-0.19041 1.28002,-0.13003 2.55874,-0.3194 3.82875,-0.56943 1.26998,-0.25003 2.53097,-0.56935 3.76098,-0.93938 1.23999,-0.37997 2.4593,-0.81103 3.6493,-1.311 1.2,-0.49003 2.37013,-1.03978 3.51013,-1.64981 1.14,-0.60994 2.2497,-1.2795 3.3197,-1.9995 1.08,-0.72 2.12013,-1.49081 3.12013,-2.31075 1,-0.82003 1.96109,-1.69013 2.87109,-2.60016 0.92,-0.91997 1.78924,-1.86909 2.60925,-2.86922 0.81999,-1.00987 1.59079,-2.04009 2.31079,-3.12009 0.72,-1.08 1.37852,-2.17969 1.98853,-3.31969 0.60998,-1.15003 1.16076,-2.31018 1.66076,-3.51018 0.49,-1.2 0.93005,-2.40929 1.30005,-3.64932 0.38,-1.23998 0.69032,-2.49098 0.95032,-3.76098 0.25,-1.2699 0.43947,-2.5497 0.56945,-3.8397 0.12,-1.29 0.19044,-2.579 0.19044,-3.869 0,-1.3 -0.0704,-2.5808 -0.19044,-3.8708 -0.12998,-1.29 -0.31945,-2.5706 -0.56945,-3.8306 -0.26,-1.27 -0.57032,-2.5302 -0.95032,-3.7702 -0.37,-1.2399 -0.81005,-2.4492 -1.30005,-3.6492 -0.5,-1.1901 -1.05078,-2.3592 -1.66076,-3.4992 -0.61001,-1.15 -1.26853,-2.2607 -1.98853,-3.3307 -0.72,-1.07 -1.4908,-2.111 -2.31079,-3.111 -0.82001,-0.9999 -1.68925,-1.9592 -2.60925,-2.8692 -0.91,-0.92 -1.87109,-1.7892 -2.87109,-2.6093 -1,-0.82 -2.04013,-1.5908 -3.12013,-2.3108 -1.07,-0.72 -2.1797,-1.3803 -3.3197,-1.9903 -1.14,-0.61 -2.31013,-1.159 -3.51013,-1.6589 -1.19,-0.5001 -2.40931,-0.9311 -3.6493,-1.3111 -1.23001,-0.37 -2.491,-0.6894 -3.76098,-0.9393 -1.27001,-0.25 -2.54873,-0.4395 -3.82875,-0.5694 -1.29,-0.12 -2.58,-0.1905 -3.88,-0.1905 z"
       id="path832"
       inkscape:connector-curvature="0"
       sodipodi:nodetypes="sccscsccccccccccsccccccccccsccccsccccsccccccccccsccccccccccscsccssccccsccsccsccccssccccsssccscccccscccccscccscccssscccccccccscccccscccccsccccsccccs" />
    <path
       id="path834"
       d="m 473.96495,1497.504 c 12.97022,-2.2838 25.20399,-4.9967 37.32557,-8.2488 87.89856,-24.4395 181.68749,-20.7919 260.49172,14.0289 56.82985,24.6969 124.87698,33.9845 194.92375,21.6512 42.82201,-7.5399 82.92941,-22.4366 117.28301,-43.0373 38.5999,-23.0251 87.9559,-27.803 129.4931,-13.2786 57.3327,20.127 123.1686,24.7738 190.0195,9.6395 150.3847,-34.3136 258.9658,-160.346 235.4406,-287.1915 -27.3451,-147.4421 -152.6127,-190.8796 -244.5671,-202.6749 -55.5561,-7.00562 -95.7863,-46.95171 -96.6447,-94.93778 -0.7481,-32.89467 -3.1935,-67.72612 -10.0633,-93.94368 C 1244.1231,629.72979 1051.0324,520.42406 843.14804,548.07422 662.70111,572.01129 524.90591,688.63549 485.16466,828.29732 400.61257,746.73786 300.79668,725.47556 199.44561,754.21208 -23.034549,825.76817 -29.36268,1144.3704 56.503188,1318.3038 123.53759,1454.0914 285.30648,1531.2806 473.96495,1497.504 Z"
       style="fill:#074687;fill-opacity:1;stroke:none;stroke-width:1.09413409"
       inkscape:connector-curvature="0"
       sodipodi:nodetypes="cccccccsccccccac" />
    <path
       inkscape:connector-curvature="0"
       style="fill:#074687;fill-opacity:1;stroke:none;stroke-width:1.19557357"
       d="m 682.79,1206.2197 c 2.25526,0 4.49975,0.1056 6.73246,0.3087 2.23293,0.2134 4.45453,0.5354 6.66479,0.9516 2.19928,0.4161 4.37487,0.9266 6.52915,1.5456 2.15428,0.6189 4.26436,1.3452 6.3402,2.1668 2.07563,0.811 4.10548,1.7285 6.09146,2.7316 1.98597,1.0031 3.9044,2.1031 5.76695,3.2982 1.87378,1.1845 3.68056,2.4531 5.41969,3.8083 1.73914,1.3553 3.40006,2.796 4.98211,4.3006 1.59328,1.5153 3.10721,3.096 4.53229,4.75 1.41375,1.654 2.76073,3.3714 4.00618,5.1428 1.24543,1.7821 2.40202,3.6076 3.46793,5.4964 1.0547,1.8781 2.01942,3.8095 2.87215,5.7836 0.86396,1.9742 1.61436,3.9908 2.27647,6.0396 0.65066,2.0382 1.19057,4.1084 1.63938,6.2 0.43758,2.1022 0.76264,4.2149 0.97594,6.3385 0.22428,2.1342 0.33683,4.2688 0.33683,6.4031 0,2.1342 -0.11255,4.2676 -0.33683,6.3912 -0.2133,2.1342 -0.53836,4.2364 -0.97594,6.3386 -0.44881,2.0916 -0.98872,4.1608 -1.63938,6.2096 -0.66211,2.0489 -1.41251,4.0557 -2.27647,6.0298 -0.85273,1.9742 -1.81745,3.9066 -2.87215,5.7954 -1.06591,1.8781 -2.2225,3.7133 -3.46793,5.4847 -1.24545,1.7821 -2.59243,3.4994 -4.00618,5.1428 -1.42508,1.654 -2.93901,3.2434 -4.53229,4.7481 -1.58205,1.5152 -3.24297,2.9453 -4.98211,4.3005 -1.73913,1.3552 -3.54591,2.6249 -5.41969,3.82 -1.86255,1.1845 -3.78098,2.2854 -5.76695,3.2885 -1.98598,1.003 -4.01583,1.9197 -6.09146,2.7414 -2.07584,0.811 -4.18592,1.5362 -6.3402,2.1551 -2.15428,0.6189 -4.32987,1.1431 -6.52915,1.5592 -2.21026,0.4162 -4.43186,0.7245 -6.66479,0.9379 -2.23271,0.2028 -4.4772,0.3108 -6.73246,0.3108 -2.24404,0 -4.47821,-0.108 -6.72225,-0.3108 -2.23282,-0.2134 -4.45442,-0.5217 -6.66468,-0.9379 -2.19928,-0.4161 -4.37487,-0.9403 -6.52915,-1.5592 -2.15428,-0.6189 -4.26436,-1.3441 -6.3402,-2.1551 -2.07574,-0.8217 -4.10559,-1.7384 -6.09156,-2.7414 -1.98598,-1.0031 -3.90429,-2.104 -5.76685,-3.2885 -1.87378,-1.1951 -3.68157,-2.4648 -5.40948,-3.82 -1.75035,-1.3552 -3.41038,-2.7853 -4.99243,-4.3005 -1.59327,-1.5047 -3.1071,-3.0941 -4.53218,-4.7481 -1.42485,-1.6434 -2.76072,-3.3607 -4.00617,-5.1428 -1.24544,-1.7714 -2.40202,-3.6066 -3.46794,-5.4847 -1.0547,-1.8888 -2.01952,-3.8212 -2.87215,-5.7954 -0.86406,-1.9741 -1.61436,-3.9809 -2.27647,-6.0298 -0.65066,-2.0488 -1.18956,-4.118 -1.62715,-6.2096 -0.43759,-2.1022 -0.77487,-4.2044 -0.98816,-6.3386 -0.22429,-2.1236 -0.33694,-4.257 -0.33694,-6.3912 0,-2.1343 0.11265,-4.2689 0.33694,-6.4031 0.21329,-2.1236 0.55057,-4.2363 0.98816,-6.3385 0.43759,-2.0916 0.97649,-4.1618 1.62715,-6.2 0.66211,-2.0488 1.41241,-4.0654 2.27647,-6.0396 0.85263,-1.9741 1.81745,-3.9055 2.87215,-5.7836 1.06592,-1.8888 2.2225,-3.7143 3.46794,-5.4964 1.24545,-1.7714 2.58132,-3.4888 4.00617,-5.1428 1.42508,-1.654 2.93891,-3.2347 4.53218,-4.75 1.58205,-1.5046 3.24208,-2.9453 4.99243,-4.3006 1.72791,-1.3552 3.5357,-2.6238 5.40948,-3.8083 1.86256,-1.1951 3.78087,-2.2951 5.76685,-3.2982 1.98597,-1.0031 4.01582,-1.9206 6.09156,-2.7316 2.07584,-0.8216 4.18592,-1.5479 6.3402,-2.1668 2.15428,-0.619 4.32987,-1.1295 6.52915,-1.5456 2.21026,-0.4162 4.43186,-0.7382 6.66468,-0.9516 2.24404,-0.2027 4.47821,-0.3087 6.72225,-0.3087 z m 391.0457,37.8086 c 76.8606,0 147.9081,21.3637 203.7386,56.5996 89.9075,57.1652 133.4006,148.9996 118.9073,240.2481 l -14.5068,88.9334 c -1.4466,10.9806 7.9694,20.798 21.7528,21.9505 125.4311,10.3936 223.3098,94.1405 223.3098,196.9352 0,87.791 -72.5085,162.8607 -171.8327,188.2792 -10.1533,2.305 -18.1231,9.2416 -20.3065,17.3196 -36.2469,118.972 -170.3714,206.7634 -330.6027,206.7634 -121.81459,0 -228.38439,-50.8263 -288.56833,-127.6368 -42.04691,-53.7076 -123.24909,-79.1271 -198.64962,-59.4816 -43.50724,11.5461 -90.63006,17.3196 -139.21363,17.3196 -246.50896,0 -446.617672,-157.6647 -450.247632,-352.8709 -5.076804,-195.2063 189.955772,-358.6458 434.294402,-364.9951 69.6007,-1.7394 135.5848,9.2427 195.0319,30.03 50.03042,17.3299 108.75281,2.8811 137.02973,-34.6491 58.00048,-74.5056 161.69231,-124.7451 279.86338,-124.7451 z m 479.719,313.591 c 1.4474,0 2.8958,0.075 4.3432,0.2032 1.4475,0.1387 2.873,0.3409 4.298,0.6077 1.425,0.2667 2.8389,0.6075 4.2301,1.0023 1.3802,0.4055 2.7483,0.8655 4.0947,1.3991 1.3352,0.5335 2.6469,1.1193 3.926,1.7702 1.2791,0.651 2.5254,1.3557 3.7371,2.124 1.2119,0.7683 2.3686,1.5907 3.4906,2.4658 1.122,0.8751 2.1974,1.8026 3.2296,2.7844 1.0211,0.971 1.9974,1.9947 2.9174,3.0618 0.9201,1.0671 1.785,2.1779 2.5928,3.3197 0.8078,1.1418 1.5487,2.327 2.2331,3.5542 0.6845,1.2165 1.3004,2.4642 1.8614,3.734 0.5611,1.2806 1.0446,2.571 1.4711,3.8941 0.4151,1.3233 0.7733,2.668 1.0539,4.0233 0.2804,1.3445 0.4931,2.7111 0.6389,4.0876 0.1459,1.3766 0.2136,2.7433 0.2136,4.1306 0,1.3766 -0.068,2.7521 -0.2136,4.1286 -0.1458,1.3766 -0.3585,2.7422 -0.6389,4.0974 -0.2806,1.3552 -0.6388,2.6902 -1.0539,4.0134 -0.4265,1.3232 -0.91,2.6137 -1.4711,3.8942 -0.561,1.2805 -1.1769,2.5186 -1.8614,3.7458 -0.6844,1.2165 -1.4253,2.39 -2.2331,3.5425 -0.8078,1.1524 -1.6727,2.2517 -2.5928,3.3294 -0.92,1.0672 -1.8963,2.0801 -2.9174,3.0618 -1.0322,0.9711 -2.1076,1.8996 -3.2296,2.7746 -1.122,0.875 -2.2787,1.6975 -3.4906,2.4659 -1.2117,0.7683 -2.458,1.4827 -3.7371,2.1336 -1.2791,0.651 -2.5908,1.2377 -3.926,1.7606 -1.3464,0.5335 -2.7145,0.9935 -4.0947,1.3991 -1.3912,0.3948 -2.8051,0.7355 -4.2301,1.0023 -1.425,0.2668 -2.8505,0.4689 -4.298,0.6076 -1.4474,0.1387 -2.8958,0.2033 -4.3432,0.2033 -1.4586,0 -2.906,-0.065 -4.3535,-0.2033 -1.4361,-0.1387 -2.8708,-0.3408 -4.2959,-0.6076 -1.4249,-0.2668 -2.8397,-0.6075 -4.2198,-1.0023 -1.3914,-0.4056 -2.7594,-0.8656 -4.0946,-1.3991 -1.3465,-0.5229 -2.6593,-1.1096 -3.9385,-1.7606 -1.279,-0.6509 -2.5241,-1.3653 -3.7247,-2.1336 -1.2118,-0.7684 -2.3788,-1.5909 -3.5008,-2.4659 -1.1221,-0.875 -2.2004,-1.8035 -3.2214,-2.7746 -1.0323,-0.9817 -2.0077,-1.9946 -2.9278,-3.0618 -0.9199,-1.0777 -1.7848,-2.177 -2.5927,-3.3294 -0.8079,-1.1525 -1.5467,-2.326 -2.2312,-3.5425 -0.6843,-1.2272 -1.3024,-2.4653 -1.8634,-3.7458 -0.5498,-1.2805 -1.0435,-2.571 -1.4586,-3.8942 -0.4264,-1.3232 -0.7745,-2.6582 -1.0663,-4.0134 -0.2805,-1.3552 -0.4931,-2.7208 -0.639,-4.0974 -0.1346,-1.3765 -0.2136,-2.752 -0.2136,-4.1286 0,-1.3873 0.078,-2.754 0.2136,-4.1306 0.1459,-1.3765 0.3585,-2.7431 0.639,-4.0876 0.2918,-1.3553 0.6399,-2.7 1.0663,-4.0233 0.4151,-1.3231 0.9088,-2.6135 1.4586,-3.8941 0.561,-1.2698 1.1791,-2.5175 1.8634,-3.734 0.6845,-1.2272 1.4233,-2.4124 2.2312,-3.5542 0.8079,-1.1418 1.6728,-2.2526 2.5927,-3.3197 0.9201,-1.0671 1.8955,-2.0908 2.9278,-3.0618 1.021,-0.9818 2.0993,-1.9093 3.2214,-2.7844 1.122,-0.8751 2.289,-1.6975 3.5008,-2.4658 1.2006,-0.7683 2.4457,-1.473 3.7247,-2.124 1.2792,-0.6509 2.592,-1.2367 3.9385,-1.7702 1.3352,-0.5336 2.7032,-0.9936 4.0946,-1.3991 1.3801,-0.3948 2.7949,-0.7356 4.2198,-1.0023 1.4251,-0.2668 2.8598,-0.469 4.2959,-0.6077 1.4475,-0.1281 2.8949,-0.2032 4.3535,-0.2032 z m -905.98469,596.3215 c 2.26648,0 4.53286,0.1177 6.78811,0.3204 2.25526,0.2134 4.49851,0.5335 6.72012,0.9496 2.2216,0.4269 4.42121,0.9501 6.5867,1.569 2.17673,0.6296 4.30766,1.355 6.40584,2.1767 2.08696,0.8324 4.14161,1.7491 6.1388,2.7629 1.99719,1.0137 3.9374,2.1246 5.82238,3.3197 1.89622,1.1952 3.71457,2.4853 5.46492,3.8512 1.75035,1.3659 3.43203,2.8185 5.02519,4.3339 1.6046,1.5366 3.13099,3.1263 4.56718,4.791 1.43619,1.6647 2.78362,3.393 4.0514,5.1857 1.25677,1.8034 2.42266,3.6391 3.48858,5.5492 1.0658,1.8994 2.03186,3.8409 2.90703,5.8364 0.86396,1.9955 1.62672,4.0241 2.28871,6.0943 0.66199,2.0488 1.21211,4.1389 1.6497,6.2623 0.44893,2.1129 0.77409,4.2377 0.99849,6.3933 0.21318,2.1342 0.33492,4.2885 0.33492,6.4442 0,2.1554 -0.12174,4.3128 -0.33492,6.4577 -0.2244,2.1449 -0.54956,4.2783 -0.99849,6.3912 -0.43759,2.1129 -0.98771,4.2048 -1.6497,6.2644 -0.66199,2.0702 -1.42475,4.0978 -2.28871,6.0826 -0.87517,1.9955 -1.84123,3.936 -2.90703,5.8462 -1.06592,1.8994 -2.23181,3.7467 -3.48858,5.5394 -1.26778,1.7928 -2.61521,3.5211 -4.0514,5.1857 -1.43619,1.6753 -2.96258,3.2651 -4.56718,4.791 -1.59316,1.526 -3.27484,2.968 -5.02519,4.3339 -1.75035,1.3766 -3.5687,2.656 -5.46492,3.8512 -1.88498,1.2057 -3.82519,2.3051 -5.82238,3.3295 -1.99719,1.0136 -4.05184,1.9324 -6.1388,2.7648 -2.09818,0.8216 -4.22911,1.546 -6.40584,2.1649 -2.16549,0.6296 -4.3651,1.1519 -6.5867,1.5788 -2.22161,0.4162 -4.46486,0.7372 -6.72012,0.9398 -2.25525,0.2135 -4.52163,0.3204 -6.78811,0.3204 -2.26636,0 -4.52353,-0.1069 -6.79001,-0.3204 -2.25526,-0.2026 -4.49863,-0.5236 -6.72024,-0.9398 -2.22159,-0.4269 -4.4212,-0.9492 -6.58659,-1.5788 -2.17682,-0.6189 -4.29745,-1.3433 -6.39563,-2.1649 -2.09818,-0.8324 -4.13946,-1.7512 -6.13677,-2.7648 -2.0083,-1.0244 -3.94973,-2.1238 -5.83473,-3.3295 -1.885,-1.1952 -3.70222,-2.4746 -5.45257,-3.8512 -1.75035,-1.3659 -3.43305,-2.8079 -5.03754,-4.3339 -1.60459,-1.5259 -3.11966,-3.1157 -4.56706,-4.791 -1.4363,-1.6646 -2.7816,-3.3929 -4.04938,-5.1857 -1.25677,-1.7927 -2.41346,-3.64 -3.4906,-5.5394 -1.06592,-1.9102 -2.03086,-3.8507 -2.89482,-5.8462 -0.87517,-1.9848 -1.63792,-4.0124 -2.28869,-6.0826 -0.66199,-2.0596 -1.21122,-4.1515 -1.65992,-6.2644 -0.43769,-2.1129 -0.77408,-4.2463 -0.99859,-6.3912 -0.21307,-2.1449 -0.32662,-4.3023 -0.32662,-6.4577 0,-2.1557 0.11355,-4.31 0.32662,-6.4442 0.22451,-2.1556 0.5609,-4.2804 0.99859,-6.3933 0.4487,-2.1234 0.99793,-4.2135 1.65992,-6.2623 0.65077,-2.0702 1.41352,-4.0988 2.28869,-6.0943 0.86396,-1.9955 1.8289,-3.937 2.89482,-5.8364 1.07714,-1.9101 2.23383,-3.7458 3.4906,-5.5492 1.26778,-1.7927 2.61308,-3.521 4.04938,-5.1857 1.4474,-1.6647 2.96247,-3.2544 4.56706,-4.791 1.60449,-1.5154 3.28719,-2.968 5.03754,-4.3339 1.75035,-1.3659 3.56757,-2.656 5.45257,-3.8512 1.885,-1.1951 3.82643,-2.306 5.83473,-3.3197 1.99731,-1.0138 4.03859,-1.9305 6.13677,-2.7629 2.09818,-0.8217 4.21881,-1.5471 6.39563,-2.1767 2.16539,-0.6189 4.365,-1.1421 6.58659,-1.569 2.22161,-0.4161 4.46498,-0.7362 6.72024,-0.9496 2.26648,-0.2027 4.52365,-0.3204 6.79001,-0.3204 z"
       id="path836" />
  </g>
</svg>
