<?xml version="1.0" encoding="UTF-8" standalone="no"?>
<svg
   xmlns:dc="http://purl.org/dc/elements/1.1/"
   xmlns:cc="http://creativecommons.org/ns#"
   xmlns:rdf="http://www.w3.org/1999/02/22-rdf-syntax-ns#"
   xmlns:svg="http://www.w3.org/2000/svg"
   xmlns="http://www.w3.org/2000/svg"
   xmlns:sodipodi="http://sodipodi.sourceforge.net/DTD/sodipodi-0.dtd"
   xmlns:inkscape="http://www.inkscape.org/namespaces/inkscape"
   width="1632.3422"
   height="2330.0557"
   viewBox="0 0 1530.3208 2184.4186"
   version="1.1"
   id="svg3"
   sodipodi:docname="all.svg"
   inkscape:version="0.92.5 (2060ec1f9f, 2020-04-08)">
  <metadata
     id="metadata9">
    <rdf:RDF>
      <cc:Work
         rdf:about="">
        <dc:format>image/svg+xml</dc:format>
        <dc:type
           rdf:resource="http://purl.org/dc/dcmitype/StillImage" />
        <dc:title></dc:title>
      </cc:Work>
    </rdf:RDF>
  </metadata>
  <defs
     id="defs7" />
  <sodipodi:namedview
     pagecolor="#ffffff"
     bordercolor="#666666"
     borderopacity="1"
     objecttolerance="10"
     gridtolerance="10"
     guidetolerance="10"
     inkscape:pageopacity="0"
     inkscape:pageshadow="2"
     inkscape:window-width="1360"
     inkscape:window-height="715"
     id="namedview5"
     showgrid="false"
     inkscape:zoom="0.22097087"
     inkscape:cx="631.32635"
     inkscape:cy="1261.3348"
     inkscape:window-x="0"
     inkscape:window-y="24"
     inkscape:window-maximized="1"
     inkscape:current-layer="svg3"
     units="px" />
  <path
     style="display:inline;fill:#074687;fill-opacity:1;stroke:none;stroke-width:1.07994151"
     d="m 730.83802,1171.9459 c -642.18264,-0.8693 -779.795982,484.2892 -691.4502,727.8131 70.6412,194.8 327.99044,320.3385 571.04187,275.6085 294.35587,-54.1099 230.43366,-303.7495 301.92627,-344.1595 133.71334,-75.76 323.77984,185.431 521.41664,68.551 197.6367,-116.89 142.1347,-692.6598 -647.57265,-726.5698 -18.85705,-0.8089 -37.30861,-1.2189 -55.36193,-1.2433 z"
     id="Imported Path #1"
     inkscape:connector-curvature="0"
     sodipodi:nodetypes="scccccs" />
  <path
     style="display:inline;fill:#074687;fill-opacity:1;stroke:none;stroke-width:1.07170022"
     d="m 1032.0154,706.01575 c -70.97564,0.8369 -135.19644,28.1674 -179.92492,70.4205 -43.69053,41.55 -116.26714,47.9903 -170.69644,18.1403 -73.254,-40.38 -160.6227,-62.0415 -254.6997,-58.5315 -223.1157,9.37 -403.8842,166.8115 -414.646,361.11145 -12.0942,218.3 188.17563,398.5601 436.15723,398.5601 71.89869,0 140.44461,-15.2217 200.26062,-42.1417 59.1384,-26.92 131.03599,-12.8686 170.68359,33.9514 71.24408,84.2701 194.89622,132.8504 328.63232,109.4403 114.9117,-19.9 229.824,-120.5616 252.68,-221.2316 22.8445,-103.59 -18.8138,-200.1588 -96.0993,-263.3588 -37.6376,-29.85 -51.7525,-77.2599 -34.9493,-119.97985 9.4065,-22.83 14.1157,-47.9912 13.4381,-73.7512 -1.3438,-113.53 -106.8491,-207.759 -236.5539,-212.439 -4.788,-0.1831 -9.5504,-0.2462 -14.2823,-0.1904 z m 394.9933,200.9308 c -1.53,0 -3.0605,0.04 -4.5904,0.1099 -1.53,0.08 -3.0605,0.1887 -4.5905,0.3387 -1.52,0.15 -3.0393,0.3413 -4.5593,0.5713 -1.51,0.22 -3.019,0.48 -4.5191,0.78 -1.5099,0.3 -3.0006,0.6389 -4.4806,1.0089 -1.49,0.37 -2.9711,0.7814 -4.4312,1.2213 -1.47,0.45 -2.9196,0.9284 -4.3596,1.4484 -1.4501,0.51 -2.8795,1.0616 -4.2994,1.6516 -1.41,0.59 -2.8094,1.2085 -4.1894,1.8586 -1.39,0.66 -2.7607,1.3509 -4.1107,2.0709 -1.35,0.72 -2.679,1.4695 -3.999,2.2595 -1.3099,0.79 -2.6,1.6109 -3.8801,2.4609 -1.2699,0.85 -2.5309,1.7396 -3.7609,2.6496 -1.23,0.91 -2.4301,1.8498 -3.62,2.8198 -1.1801,0.98 -2.3391,1.9802 -3.4791,3.0102 -1.13,1.03 -2.2405,2.0796 -3.3306,3.1696 -1.08,1.08 -2.1397,2.1907 -3.1696,3.3307 -1.02,1.13 -2.0202,2.2898 -2.9901,3.4698 -0.9801,1.19 -1.9208,2.3992 -2.8309,3.6292 -0.9099,1.23 -1.7994,2.491 -2.6494,3.761 -0.8501,1.27 -1.671,2.57 -2.461,3.88 -0.78,1.31 -1.5395,2.649 -2.2595,3.999 -0.72,1.35 -1.41,2.7197 -2.06,4.0997 -0.6599,1.39 -1.2795,2.7915 -1.8695,4.2115 -0.59,1.41 -1.1398,2.8383 -1.6498,4.2883 -0.5199,1.44 -1.0001,2.8916 -1.4501,4.3616 -0.4401,1.47 -0.8395,2.9393 -1.2195,4.4293 -0.37,1.48 -0.7107,2.9806 -1.0107,4.4806 -0.2901,1.51 -0.5602,3.02 -0.7801,4.53 -0.2301,1.52 -0.4103,3.0393 -0.5603,4.5593 -0.1599,1.53 -0.2705,3.0605 -0.3406,4.5905 -0.08,1.53 -0.1098,3.0604 -0.1098,4.59035 10e-5,1.53 0.03,3.0696 0.1098,4.5996 0.07,1.53 0.1807,3.0495 0.3406,4.5795 0.15,1.53 0.3302,3.0493 0.5603,4.5593 0.2199,1.52 0.49,3.0301 0.7801,4.5301 0.3,1.5 0.6407,3.0006 1.0107,4.4806 0.38,1.49 0.7794,2.9703 1.2195,4.4403 0.45,1.46 0.9302,2.9197 1.4501,4.3597 0.51,1.44 1.0598,2.8702 1.6498,4.2902 0.59,1.41 1.2096,2.8204 1.8695,4.2004 0.65,1.39 1.34,2.7489 2.06,4.1089 0.72,1.34 1.4795,2.6799 2.2595,3.9899 0.79,1.32 1.6109,2.6109 2.461,3.891 0.85,1.2699 1.7395,2.52 2.6494,3.75 0.9101,1.23 1.8508,2.4391 2.8309,3.6291 0.9699,1.18 1.9701,2.3408 2.9901,3.4808 1.0299,1.13 2.0897,2.2389 3.1696,3.3289 1.0901,1.08 2.2006,2.1404 3.3306,3.1604 1.14,1.03 2.299,2.0403 3.4791,3.0103 1.1899,0.97 2.39,1.9108 3.62,2.8308 1.23,0.91 2.491,1.7885 3.7609,2.6385 1.2801,0.85 2.5702,1.681 3.8801,2.461 1.32,0.7899 2.649,1.5505 3.999,2.2705 1.35,0.72 2.7207,1.4099 4.1107,2.0599 1.38,0.66 2.7794,1.2795 4.1894,1.8695 1.4199,0.58 2.8493,1.1298 4.2994,1.6498 1.44,0.52 2.8896,1.001 4.3596,1.441 1.4601,0.45 2.9412,0.8487 4.4312,1.2287 1.48,0.37 2.9707,0.7007 4.4806,1.0107 1.5001,0.29 3.0091,0.55 4.5191,0.78 1.52,0.23 3.0393,0.4103 4.5593,0.5603 1.53,0.15 3.0605,0.2688 4.5905,0.3388 1.5299,0.07 3.0604,0.1098 4.5904,0.1098 1.5401,0 3.0704,-0.04 4.5905,-0.1098 1.5399,-0.07 3.0686,-0.1888 4.5886,-0.3388 1.52,-0.15 3.0512,-0.3303 4.5611,-0.5603 1.51,-0.23 3.0201,-0.49 4.53,-0.78 1.5,-0.31 2.989,-0.6407 4.4788,-1.0107 1.4901,-0.38 2.9612,-0.7787 4.4312,-1.2287 1.47,-0.44 2.9197,-0.921 4.3597,-1.441 1.44,-0.52 2.8702,-1.0698 4.2902,-1.6498 1.42,-0.59 2.8204,-1.2095 4.2004,-1.8695 1.3902,-0.65 2.749,-1.3399 4.1089,-2.0599 1.3401,-0.72 2.6799,-1.4806 3.9899,-2.2705 1.32,-0.78 2.611,-1.611 3.8909,-2.461 1.2701,-0.85 2.52,-1.7285 3.75,-2.6385 1.23,-0.92 2.4401,-1.8608 3.6201,-2.8308 1.19,-0.97 2.349,-1.9803 3.479,-3.0103 1.14,-1.02 2.2506,-2.0804 3.3306,-3.1604 1.0801,-1.09 2.1396,-2.1989 3.1696,-3.3289 1.0299,-1.14 2.0312,-2.3008 3.0011,-3.4808 0.97,-1.19 1.919,-2.3991 2.829,-3.6291 0.91,-1.23 1.7904,-2.4801 2.6404,-3.75 0.86,-1.2801 1.6791,-2.571 2.4591,-3.891 0.79,-1.31 1.5505,-2.6499 2.2705,-3.9899 0.72,-1.36 1.4099,-2.7189 2.06,-4.1089 0.66,-1.38 1.2803,-2.7904 1.8603,-4.2004 0.59,-1.42 1.1407,-2.8502 1.6607,-4.2902 0.52,-1.44 0.9992,-2.8997 1.4393,-4.3597 0.4399,-1.47 0.8505,-2.9503 1.2305,-4.4403 0.37,-1.48 0.6997,-2.9806 0.9997,-4.4806 0.3,-1.5 0.5591,-3.0101 0.7892,-4.5301 0.2199,-1.51 0.4102,-3.0293 0.5602,-4.5593 0.15,-1.53 0.2606,-3.0495 0.3406,-4.5795 0.07,-1.53 0.1099,-3.0696 0.1099,-4.5996 0,-1.52995 -0.039,-3.06035 -0.1099,-4.59035 -0.08,-1.53 -0.1906,-3.0605 -0.3406,-4.5905 -0.15,-1.52 -0.3403,-3.0393 -0.5602,-4.5593 -0.2301,-1.51 -0.4892,-3.02 -0.7892,-4.53 -0.3,-1.5 -0.6297,-3.0006 -0.9997,-4.4806 -0.38,-1.49 -0.7906,-2.9593 -1.2305,-4.4293 -0.4401,-1.47 -0.9193,-2.9216 -1.4393,-4.3616 -0.52,-1.45 -1.0707,-2.8783 -1.6607,-4.2883 -0.58,-1.42 -1.2003,-2.8215 -1.8603,-4.2115 -0.6501,-1.38 -1.34,-2.7497 -2.06,-4.0997 -0.72,-1.35 -1.4805,-2.689 -2.2705,-3.999 -0.78,-1.31 -1.5991,-2.61 -2.4591,-3.88 -0.85,-1.27 -1.7304,-2.531 -2.6404,-3.761 -0.91,-1.23 -1.859,-2.4392 -2.829,-3.6292 -0.9699,-1.18 -1.9712,-2.3398 -3.0011,-3.4698 -1.03,-1.14 -2.0895,-2.2507 -3.1696,-3.3307 -1.0799,-1.09 -2.1906,-2.1396 -3.3306,-3.1696 -1.13,-1.03 -2.289,-2.0302 -3.479,-3.0102 -1.18,-0.97 -2.3901,-1.9098 -3.6201,-2.8198 -1.23,-0.91 -2.4799,-1.7996 -3.75,-2.6496 -1.2799,-0.85 -2.5709,-1.6709 -3.8909,-2.4609 -1.31,-0.79 -2.6399,-1.5395 -3.9899,-2.2595 -1.3599,-0.72 -2.7187,-1.4109 -4.1089,-2.0709 -1.38,-0.6501 -2.7804,-1.2686 -4.2004,-1.8586 -1.42,-0.59 -2.8502,-1.1416 -4.2902,-1.6516 -1.44,-0.52 -2.8897,-0.9984 -4.3597,-1.4484 -1.47,-0.4399 -2.9411,-0.8513 -4.4312,-1.2213 -1.4898,-0.37 -2.9787,-0.7089 -4.4788,-1.0089 -1.5099,-0.3 -3.02,-0.56 -4.53,-0.78 -1.5099,-0.23 -3.0411,-0.4213 -4.5611,-0.5713 -1.52,-0.15 -3.0487,-0.2587 -4.5886,-0.3387 -1.5201,-0.07 -3.0504,-0.1099 -4.5905,-0.1099 z"
     id="Imported Path #10-3"
     inkscape:connector-curvature="0"
     sodipodi:nodetypes="sccccsccccccccsscccccccccscccccccccccscccccccccccccccccccccccccccccccscccccccccscscccccccccccccccccccccccccscscscccccccccscccccccccccccccccccscs" />
  <path
     style="display:inline;fill:#074687;fill-opacity:1;stroke:none;stroke-width:1.09262609"
     d="m 841.5601,-0.00315205 c -2.01,0 -4.01053,0.099 -6.00037,0.2893 -1.99013,0.2001 -3.97003,0.5018 -5.94,0.89180005 -1.96003,0.39 -3.89906,0.8683 -5.81906,1.4483 -1.92,0.5801 -3.80054,1.2607 -5.65064,2.0307 -1.85,0.76 -3.65909,1.6198 -5.42909,2.5598 -1.77,0.94 -3.47976,1.9708 -5.13976,3.0909 -1.67,1.11 -3.28033,2.2986 -4.83032,3.5686 -1.5501,1.2701 -3.03031,2.6202 -4.44031,4.0302 -1.4199,1.42 -2.76921,2.9013 -4.03931,4.4513 -1.26,1.55 -2.46056,3.1593 -3.57056,4.8193 -1.11,1.67 -2.14082,3.3808 -3.09081,5.1508 -0.94001,1.76 -1.79982,3.5699 -2.55982,5.4199 -0.77,1.85 -1.43871,3.7398 -2.02881,5.6598 -0.5799,1.91 -1.06108,3.8499 -1.46118,5.81 -0.39,1.9699 -0.67975,3.9498 -0.86975,5.9399 -0.2,1.9999 -0.30029,4.0004 -0.30029,6.0003 0,2 0.10029,3.9994 0.30029,5.9894 0.19,2 0.47975,3.97 0.86975,5.94 0.4001,1.96 0.88128,3.899 1.46118,5.819 0.5901,1.92 1.25881,3.8007 2.02881,5.6507 0.76,1.85 1.61981,3.6609 2.55982,5.4309 0.94999,1.76 1.98081,3.4798 3.09081,5.1398 1.11,1.67 2.31056,3.2793 3.57056,4.8193 1.2701,1.550002 2.61941,3.039502 4.03931,4.449502 1.41,1.42 2.89021,2.7602 4.44031,4.0301 1.54999,1.27 3.16032,2.4597 4.83032,3.5797 1.66,1.11 3.36976,2.1417 5.13976,3.0817 1.77,0.94 3.57909,1.799 5.42909,2.5689 1.8501,0.7601 3.73064,1.4398 5.65064,2.0197 1.92,0.58 3.85903,1.0712 5.81906,1.4612 1.96997,0.39 3.94987,0.6789 5.94,0.8789 1.98984,0.19 3.99037,0.2912 6.00037,0.2912 2.00007,0 3.99113,-0.1012 5.99119,-0.2912 1.98994,-0.2 3.97003,-0.4889 5.93991,-0.8789 1.96012,-0.39 3.89906,-0.8812 5.81906,-1.4612 1.92,-0.5799 3.80063,-1.2596 5.65069,-2.0197 1.84987,-0.7699 3.65906,-1.6289 5.42906,-2.5689 1.77,-0.94 3.47981,-1.9717 5.13975,-3.0817 1.67006,-1.12 3.28106,-2.3097 4.82119,-3.5797 1.56,-1.2699 3.03947,-2.6101 4.44951,-4.0301 1.4201,-1.41 2.7691,-2.8995 4.0393,-4.449502 1.2699,-1.54 2.4605,-3.1493 3.5705,-4.8193 1.11,-1.66 2.1408,-3.3798 3.0909,-5.1398 0.9399,-1.77 1.7999,-3.5809 2.5597,-5.4309 0.7702,-1.85 1.4388,-3.7307 2.0289,-5.6507 0.5799,-1.92 1.0602,-3.859 1.4502,-5.819 0.39,-1.97 0.6906,-3.94 0.8807,-5.94 0.1999,-1.99 0.3003,-3.9894 0.3003,-5.9894 0,-1.9999 -0.1004,-4.0004 -0.3003,-6.0003 -0.1901,-1.9901 -0.4907,-3.97 -0.8807,-5.9399 -0.39,-1.9601 -0.8703,-3.9 -1.4502,-5.81 -0.5901,-1.92 -1.2587,-3.8098 -2.0289,-5.6598 -0.7598,-1.85 -1.6198,-3.6599 -2.5597,-5.4199 -0.9501,-1.77 -1.9809,-3.4808 -3.0909,-5.1508 -1.11,-1.66 -2.3006,-3.2693 -3.5705,-4.8193 -1.2702,-1.55 -2.6192,-3.0313 -4.0393,-4.4513 -1.41004,-1.41 -2.88951,-2.7601 -4.44951,-4.0302 -1.54013,-1.27 -3.15113,-2.4586 -4.82119,-3.5686 -1.65994,-1.1201 -3.36975,-2.1509 -5.13975,-3.0909 -1.77,-0.94 -3.57919,-1.7998 -5.42906,-2.5598 -1.85007,-0.77 -3.73069,-1.4506 -5.65069,-2.0307 -1.92,-0.58 -3.85894,-1.0583 -5.81906,-1.4483 -1.96988,-0.39000005 -3.94997,-0.69170005 -5.93991,-0.89180005 -2.00006,-0.1899 -3.99112,-0.2893 -5.99119,-0.2893 z M 493.04078,35.427848 c -68.50211,0 -131.82304,20.0201 -181.58204,53.0402 C 231.32884,142.03795 192.56549,228.09715 205.48279,313.60715 l 12.92908,83.34045 c 1.2893,10.29 -7.10271,19.49006 -19.38721,20.57006 C 87.23422,427.25763 0,505.73783 0,602.06785 c 0,82.27 64.6231,152.6186 153.14575,176.4386 9.0492,2.16 16.15225,8.6604 18.09815,16.2305 32.3051,111.49 151.84345,193.7603 294.64966,193.7603 108.567,0 203.54737,-47.63 257.18628,-119.61 37.47429,-50.33 109.84579,-74.1509 177.04652,-55.7409 38.7757,10.82 80.774,16.2304 124.07414,16.2304 219.7009,0 398.0477,-147.7493 401.2829,-330.67928 4.5247,-182.92992 -169.298,-336.09102 -387.0648,-342.04102 -62.03164,-1.63 -120.83984,8.6615 -173.82206,28.1415 -44.58958,16.24 -96.92586,2.6999 -122.12766,-32.4701 C 690.77588,82.507848 598.36058,35.427848 493.04078,35.427848 Z M 65.49133,329.29745 c -1.29,0 -2.58084,0.07 -3.87084,0.1905 -1.29,0.1299 -2.56057,0.3194 -3.83057,0.5694 -1.27,0.2499 -2.53014,0.5693 -3.77015,0.9393 -1.23,0.38 -2.44928,0.811 -3.64928,1.3111 -1.19,0.4999 -2.35916,1.0489 -3.49916,1.6589 -1.14,0.61 -2.25068,1.2703 -3.33068,1.9903 -1.08,0.72 -2.11096,1.4908 -3.11096,2.3108 -1.00001,0.8201 -1.95843,1.6893 -2.87842,2.6093 -0.91001,0.91 -1.7801,1.8693 -2.6001,2.8692 -0.82001,1 -1.59079,2.041 -2.31079,3.111 -0.72,1.07 -1.38036,2.1807 -1.99035,3.3307 -0.61001,1.14 -1.15895,2.3091 -1.65894,3.4992 -0.50001,1.2 -0.93104,2.4093 -1.31104,3.6492 -0.37,1.24 -0.68934,2.5002 -0.93932,3.7702 -0.25001,1.26 -0.43946,2.5406 -0.56946,3.8306 -0.12999,1.29 -0.19044,2.5708 -0.19044,3.8708 0,1.29 0.0605,2.579 0.19044,3.869 0.13,1.29 0.31945,2.5698 0.56946,3.8397 0.24998,1.27 0.56932,2.521 0.93932,3.76098 0.38,1.24003 0.81103,2.44932 1.31104,3.64932 0.49999,1.2 1.04893,2.36015 1.65894,3.51018 0.60999,1.14 1.27035,2.23969 1.99035,3.31969 0.72,1.08 1.49078,2.11022 2.31079,3.12009 0.82,1.00013 1.69009,1.94925 2.6001,2.86922 0.91999,0.91003 1.87841,1.78013 2.87842,2.60016 1,0.81994 2.03096,1.59075 3.11096,2.31075 1.08,0.72 2.19068,1.38956 3.33068,1.9995 1.14,0.61003 2.30916,1.15978 3.49916,1.64981 1.2,0.49997 2.41928,0.93103 3.64928,1.311 1.24001,0.37003 2.50015,0.68935 3.77015,0.93938 1.27,0.25003 2.54057,0.4394 3.83057,0.56943 1.29,0.13004 2.58084,0.19041 3.87084,0.19041 1.3,0 2.59,-0.0609 3.88,-0.19041 1.28002,-0.13003 2.55874,-0.3194 3.82875,-0.56943 1.26998,-0.25003 2.53097,-0.56935 3.76098,-0.93938 1.23999,-0.37997 2.4593,-0.81103 3.6493,-1.311 1.2,-0.49003 2.37013,-1.03978 3.51013,-1.64981 1.14,-0.60994 2.2497,-1.2795 3.31969,-1.9995 1.08,-0.72 2.12013,-1.49081 3.12013,-2.31075 1,-0.82003 1.96109,-1.69013 2.87109,-2.60016 0.92,-0.91997 1.78924,-1.86909 2.60925,-2.86922 0.81999,-1.00987 1.59079,-2.04009 2.31079,-3.12009 0.72,-1.08 1.37852,-2.17969 1.98853,-3.31969 0.60998,-1.15003 1.16076,-2.31018 1.66076,-3.51018 0.49,-1.2 0.93005,-2.40929 1.30005,-3.64932 0.38,-1.23998 0.69032,-2.49098 0.95032,-3.76098 0.25,-1.2699 0.43947,-2.5497 0.56945,-3.8397 0.12,-1.29 0.19044,-2.579 0.19044,-3.869 0,-1.3 -0.0704,-2.5808 -0.19044,-3.8708 -0.12998,-1.29 -0.31945,-2.5706 -0.56945,-3.8306 -0.26,-1.27 -0.57032,-2.5302 -0.95032,-3.7702 -0.37,-1.2399 -0.81005,-2.4492 -1.30005,-3.6492 -0.5,-1.1901 -1.05078,-2.3592 -1.66076,-3.4992 -0.61001,-1.15 -1.26853,-2.2607 -1.98853,-3.3307 -0.72,-1.07 -1.4908,-2.111 -2.31079,-3.111 -0.82001,-0.9999 -1.68925,-1.9592 -2.60925,-2.8692 -0.91,-0.92 -1.87109,-1.7892 -2.87109,-2.6093 -1,-0.82 -2.04013,-1.5908 -3.12013,-2.3108 -1.06999,-0.72 -2.17969,-1.3803 -3.31969,-1.9903 -1.14,-0.61 -2.31013,-1.159 -3.51013,-1.6589 -1.19,-0.5001 -2.40931,-0.9311 -3.6493,-1.3111 -1.23001,-0.37 -2.491,-0.6894 -3.76098,-0.9393 -1.27001,-0.25 -2.54873,-0.4395 -3.82875,-0.5694 -1.29,-0.12 -2.58,-0.1905 -3.88,-0.1905 z"
     id="Imported Path #10"
     inkscape:connector-curvature="0"
     sodipodi:nodetypes="sccscsccccccccccsccccccccccsccccsccccsccccccccccsccccccccccscsccssccccsccsccsccccssccccsssccscccccscccccscccscccssscccccccccscccccscccccsccccsccccs" />
</svg>
